<svg width="278" height="151" viewBox="0 0 278 151" fill="none" xmlns="http://www.w3.org/2000/svg">
<g clip-path="url(#clip0_375_4018)">
<rect width="277.5" height="150.856" transform="translate(0.25)" fill="white"/>
<g clip-path="url(#clip1_375_4018)">
<path fill-rule="evenodd" clip-rule="evenodd" d="M141.914 50.5041C139.431 52.862 136.795 54.9547 135.416 55.3053C135.356 55.0511 135.29 54.7969 135.217 54.5438C134.235 50.4592 130.28 45.5265 127.706 43.4074C123.483 39.3534 118.443 36.0861 114.833 34.3068C119.501 35.0222 123.916 36.6767 128.124 39.1091C131.898 41.2917 135.508 44.101 138.982 47.4176C139.917 48.4563 140.896 49.4851 141.914 50.5041Z" fill="#1776CC"/>
<path fill-rule="evenodd" clip-rule="evenodd" d="M147.682 43.6572C147.3 44.8208 144.979 47.5337 142.381 50.0549C141.393 49.0063 140.391 47.9972 139.381 47.0297C136.168 43.46 133.469 39.7687 131.399 35.9295C129.03 31.5325 127.487 26.9395 126.947 22.1086C128.61 25.8471 131.865 31.2619 135.998 35.7706C139.398 39.4805 143.396 42.5824 147.601 43.6485C147.628 43.6561 147.657 43.6583 147.682 43.6572Z" fill="#208FD3"/>
<path fill-rule="evenodd" clip-rule="evenodd" d="M151.604 15.0941C146.209 22.4757 143.25 28.2893 135.785 34.7023C131.441 29.7641 128.169 23.9297 126.876 20.4717C130.865 21.4644 134.914 21.4271 138.96 20.532C143.203 19.5941 147.44 17.715 151.604 15.0941Z" fill="#1776CC"/>
<path fill-rule="evenodd" clip-rule="evenodd" d="M170.385 2.35693C176.396 3.61367 182.321 5.49603 187.943 8.24179C176.053 7.55371 161.651 10.8846 152.354 14.3337L152.418 14.2132C153.708 11.7983 159.139 1.62612 170.385 2.35693Z" fill="#004693"/>
<path fill-rule="evenodd" clip-rule="evenodd" d="M129.282 3.15568C130.435 1.56038 132.228 0.569889 134.302 0.452652C144.569 -0.123672 156.202 -0.21023 167.66 1.82991C157.929 2.71083 153.14 11.6778 151.927 13.9513C151.783 14.2165 151.747 14.3447 151.723 14.36V14.3611C147.477 17.0872 143.157 19.0364 138.84 19.9907C134.808 20.8815 130.775 20.9056 126.805 19.8822L126.776 19.8734C126.692 17.4674 126.866 13.6665 127.388 10.1285C127.795 7.36635 128.413 4.77289 129.282 3.15568Z" fill="#208FD3"/>
<path fill-rule="evenodd" clip-rule="evenodd" d="M118.871 16.2347C123.492 13.7432 125.447 11.7085 127.255 7.66C127.096 8.42917 126.958 9.23229 126.838 10.0486C126.322 13.535 126.144 17.2844 126.215 19.7266C124.417 19.2435 123.043 18.7668 121.826 18.1598C120.79 17.6449 119.862 17.0313 118.871 16.2347Z" fill="#004693"/>
<path fill-rule="evenodd" clip-rule="evenodd" d="M108.839 22.6554C108.059 20.6415 106.854 18.2464 105.324 16.2841C104.451 15.1665 101.088 11.9704 101.27 11.3305C102.006 10.1001 106.53 14.1245 107.89 13.363C110.435 11.9408 114.899 14.0171 117.515 15.7362C117.525 15.7965 117.556 15.8535 117.605 15.8973C118.99 17.1102 120.188 17.967 121.578 18.6584C122.869 19.3004 124.322 19.7979 126.239 20.3085V20.3106V20.3161V20.3183V20.3194V20.3216V20.3238L126.241 20.326V20.3282C126.567 25.9139 128.208 31.1819 130.911 36.1957C132.395 38.9491 134.2 41.6259 136.28 44.2358C133.733 42.0773 131.112 40.1949 128.403 38.6292C123.603 35.8539 118.531 34.0767 113.124 33.5321L113.003 33.4817C112.224 30.0106 110.805 26.4639 108.839 22.6554Z" fill="#50BCFF"/>
<path fill-rule="evenodd" clip-rule="evenodd" d="M99.5332 34.138C104.249 32.2907 106.668 30.1969 109.503 25.2598C110.816 28.0691 111.798 30.7458 112.407 33.3711C109.978 33.2078 106.095 33.2659 102.481 33.6899C101.466 33.8104 100.47 33.9572 99.5332 34.138Z" fill="#004693"/>
<path fill-rule="evenodd" clip-rule="evenodd" d="M93.4928 75.6585C91.5064 63.627 91.937 51.3993 92.8595 40.6814C93.025 38.7607 93.9366 37.1018 95.3708 35.9908C95.3982 35.9853 95.4256 35.9766 95.4508 35.9634C97.0867 35.1241 99.7316 34.573 102.546 34.2443C106.157 33.8203 110.031 33.7644 112.426 33.932C112.458 33.9737 112.501 34.0066 112.552 34.0263C112.896 35.6676 113.092 37.2925 113.131 38.9206C113.274 44.9282 111.268 50.9982 106.61 58.1563C106.593 58.1826 106.461 58.2122 106.183 58.3513C103.702 59.5861 93.5772 64.6317 93.4928 75.6585Z" fill="#1776CC"/>
<path fill-rule="evenodd" clip-rule="evenodd" d="M106.285 58.9199C102.532 68.1039 98.7115 82.5328 99.0489 94.5326C96.8773 89.7259 95.3258 84.7208 94.2444 79.6468C94.3496 79.5898 94.4088 79.4726 94.3869 79.3499C91.9588 66.307 103.345 60.387 106.285 58.9199Z" fill="#004693"/>
<path fill-rule="evenodd" clip-rule="evenodd" d="M126.978 43.4797C121.071 49.9782 114.401 53.3035 107.212 58.2483C111.838 51.0815 113.83 44.972 113.686 38.9053C113.649 37.3188 113.464 35.7366 113.143 34.1402C116.614 35.6084 122.259 39.0423 126.978 43.4797Z" fill="#208FD3"/>
<path d="M18.3283 124.497C18.2117 124.328 18.1534 124.127 18.1534 123.894C18.1794 123.506 18.2571 123.273 18.3866 123.195C18.5161 123.117 18.7622 123.078 19.1248 123.078C19.876 123.078 20.4329 122.942 20.7956 122.67C21.1582 122.398 21.3849 122.062 21.4755 121.66C21.5662 121.259 21.6244 120.734 21.6504 120.086L21.6504 104.661C21.6244 104.013 21.5662 103.488 21.4755 103.087C21.3849 102.685 21.1582 102.349 20.7956 102.077C20.4329 101.805 19.876 101.669 19.1248 101.669H18.8917C18.6326 101.669 18.4513 101.623 18.3476 101.533C18.244 101.442 18.1792 101.215 18.1533 100.853C18.1533 100.62 18.2116 100.419 18.3282 100.25C18.4447 100.082 18.6196 99.9979 18.8527 99.9979C20.5365 100.076 22.0648 100.114 23.4377 100.114C24.9919 100.114 26.611 100.076 28.2947 99.9979C28.5278 99.9979 28.7027 100.082 28.8193 100.25C28.9358 100.419 28.9941 100.62 28.9941 100.853C28.9682 101.241 28.8905 101.474 28.761 101.552C28.6315 101.63 28.3854 101.669 28.0228 101.669C27.2716 101.669 26.7146 101.805 26.352 102.077C25.9893 102.349 25.7627 102.685 25.672 103.087C25.5814 103.488 25.5231 104.013 25.4972 104.661L25.4972 111.538H37.698V104.661C37.6721 104.013 37.6138 103.488 37.5231 103.087C37.4325 102.685 37.2058 102.349 36.8432 102.077C36.4806 101.805 35.9236 101.669 35.1724 101.669H34.9393C34.6802 101.669 34.4924 101.623 34.3759 101.533C34.2593 101.442 34.1881 101.215 34.1622 100.853C34.1622 100.62 34.2269 100.419 34.3564 100.251C34.486 100.082 34.6543 99.998 34.8615 99.998C36.5453 100.076 38.1643 100.115 39.7185 100.115C41.1433 100.115 42.6846 100.076 44.3425 99.998C44.5756 99.998 44.7504 100.082 44.867 100.251C44.9836 100.419 45.0419 100.62 45.0419 100.853C45.0159 101.241 44.9317 101.474 44.7893 101.552C44.6468 101.63 44.4071 101.669 44.0704 101.669C43.3192 101.669 42.7558 101.805 42.3801 102.077C42.0045 102.349 41.7714 102.686 41.6807 103.087C41.5901 103.489 41.5318 104.013 41.5059 104.661V120.087C41.5318 120.734 41.5901 121.259 41.6807 121.66C41.7714 122.062 42.0045 122.398 42.3801 122.67C42.7558 122.942 43.3192 123.078 44.0704 123.078H44.3035C44.5367 123.078 44.7115 123.124 44.8281 123.214C44.9446 123.305 45.0159 123.532 45.0418 123.894C45.0418 124.128 44.9835 124.328 44.8669 124.497C44.7504 124.665 44.5755 124.749 44.3424 124.749C42.6845 124.672 41.1303 124.633 39.6796 124.633C38.1513 124.633 36.5453 124.672 34.8615 124.749C34.6543 124.749 34.486 124.665 34.3564 124.497C34.2269 124.328 34.1622 124.128 34.1622 123.894C34.1881 123.506 34.2723 123.273 34.4148 123.195C34.5573 123.117 34.8098 123.078 35.1725 123.078C35.9237 123.078 36.4806 122.942 36.8432 122.67C37.2059 122.398 37.4325 122.062 37.5232 121.66C37.6138 121.259 37.6721 120.734 37.698 120.086V113.209H25.4972V120.086C25.5231 120.734 25.5814 121.259 25.6721 121.66C25.7627 122.062 25.9894 122.398 26.352 122.67C26.7147 122.942 27.2716 123.078 28.0228 123.078H28.2559C28.515 123.078 28.6963 123.124 28.8 123.214C28.9036 123.305 28.9684 123.532 28.9943 123.894C28.9943 124.127 28.936 124.328 28.8194 124.497C28.7029 124.665 28.528 124.749 28.2949 124.749C26.637 124.671 25.031 124.633 23.4767 124.633C22.0779 124.633 20.5366 124.671 18.8528 124.749C18.6197 124.749 18.4449 124.665 18.3283 124.497Z" fill="#005691"/>
<path d="M48.4806 124.497C48.364 124.328 48.3057 124.128 48.3057 123.894C48.3316 123.506 48.4158 123.273 48.5583 123.195C48.7008 123.117 48.9404 123.078 49.2771 123.078C50.0283 123.078 50.5853 122.942 50.9479 122.67C51.3106 122.398 51.5437 122.068 51.6473 121.68C51.751 121.291 51.8157 120.76 51.8416 120.086V104.661C51.8157 103.987 51.751 103.456 51.6473 103.068C51.5437 102.679 51.3106 102.349 50.9479 102.077C50.5853 101.805 50.0283 101.669 49.2771 101.669H49.044C48.8109 101.669 48.636 101.623 48.5194 101.533C48.4029 101.442 48.3317 101.215 48.3057 100.853C48.3057 100.62 48.364 100.419 48.4806 100.251C48.5972 100.082 48.772 99.998 49.0051 99.998C50.6889 100.076 52.2302 100.115 53.629 100.115C55.1833 100.115 56.8023 100.076 58.486 99.998C58.7192 99.998 58.894 100.082 59.0106 100.251C59.1272 100.419 59.1854 100.62 59.1854 100.853C59.1595 101.241 59.0753 101.474 58.9328 101.552C58.7903 101.63 58.5378 101.669 58.1751 101.669C57.4239 101.669 56.867 101.805 56.5044 102.077C56.1417 102.349 55.9151 102.686 55.8244 103.087C55.7338 103.489 55.6755 104.013 55.6496 104.661V120.087C55.6755 120.734 55.7338 121.259 55.8244 121.66C55.9151 122.062 56.1417 122.398 56.5044 122.67C56.867 122.942 57.4239 123.078 58.1751 123.078H58.4083C58.6673 123.078 58.8551 123.124 58.9717 123.214C59.0883 123.305 59.1595 123.532 59.1854 123.894C59.1854 124.128 59.1271 124.328 59.0105 124.497C58.894 124.665 58.7191 124.749 58.486 124.749C56.8281 124.672 55.2221 124.633 53.6678 124.633C52.2431 124.633 50.6889 124.672 49.0051 124.749C48.772 124.749 48.5971 124.665 48.4806 124.497H48.4806Z" fill="#005691"/>
<path d="M68.6464 123.992C66.8202 123.046 65.3759 121.609 64.3138 119.679C63.2517 117.749 62.7207 115.372 62.7207 112.549C62.7207 109.932 63.2971 107.627 64.4498 105.632C65.6025 103.638 67.2021 102.09 69.2486 100.989C71.295 99.888 73.6393 99.3376 76.2815 99.3376C77.5767 99.3376 78.8589 99.5318 80.1282 99.9204C81.3976 100.309 82.4467 100.918 83.2756 101.747C84.1045 102.576 84.519 103.599 84.519 104.816C84.519 105.956 84.1822 106.94 83.5087 107.769C82.8352 108.598 81.9415 109.013 80.8277 109.013C80.2837 109.013 79.7591 108.883 79.254 108.624C78.7489 108.365 78.4834 108.028 78.4574 107.614C78.4574 107.588 78.6323 107.445 78.982 107.186C79.3317 106.927 79.6555 106.578 79.9534 106.137C80.2513 105.697 80.4002 105.166 80.4002 104.544C80.4002 103.456 79.9728 102.575 79.118 101.902C78.2632 101.228 77.1623 100.892 75.8152 100.892C74.2092 100.892 72.7586 101.338 71.4634 102.232C70.1682 103.126 69.145 104.434 68.3938 106.157C67.6426 107.879 67.267 109.932 67.267 112.315C67.267 114.621 67.6361 116.615 68.3744 118.299C69.1126 119.983 70.1488 121.272 71.4829 122.165C72.8169 123.059 74.3647 123.506 76.1261 123.506C76.955 123.506 77.6804 123.46 78.3021 123.37C78.9237 123.279 79.5972 123.117 80.3226 122.884V118.921C80.3226 118.014 80.2902 117.38 80.2254 117.017C80.1607 116.654 79.9534 116.382 79.6037 116.201C79.254 116.02 78.6647 115.929 77.8358 115.929C77.5508 115.929 77.3436 115.884 77.2141 115.793C77.0846 115.702 77.0069 115.476 76.981 115.113C76.981 114.88 77.0522 114.679 77.1947 114.511C77.3372 114.342 77.5379 114.258 77.797 114.258C79.429 114.336 80.8537 114.375 82.0712 114.375C83.2368 114.375 84.6357 114.336 86.2676 114.258C86.5008 114.258 86.6821 114.342 86.8116 114.511C86.9411 114.679 87.0059 114.88 87.0059 115.113C86.98 115.476 86.9023 115.702 86.7727 115.793C86.6432 115.884 86.436 115.929 86.1511 115.929C85.374 115.929 84.817 116.033 84.4803 116.24C84.1435 116.447 83.9363 116.738 83.8586 117.114C83.7809 117.49 83.742 118.092 83.742 118.921V123.506C82.2137 124.231 80.8149 124.73 79.5456 125.002C78.2763 125.274 76.6832 125.41 74.7663 125.41C72.5126 125.41 70.4727 124.937 68.6464 123.992Z" fill="#005691"/>
<path d="M89.5519 124.497C89.4354 124.328 89.3771 124.127 89.3771 123.894C89.403 123.506 89.4807 123.273 89.6102 123.195C89.7397 123.117 89.9858 123.078 90.3484 123.078C91.0996 123.078 91.6566 122.942 92.0192 122.67C92.3818 122.398 92.6085 122.062 92.6991 121.66C92.7898 121.259 92.8481 120.734 92.874 120.086V104.661C92.8481 104.013 92.7898 103.488 92.6991 103.087C92.6085 102.685 92.3818 102.349 92.0192 102.077C91.6566 101.805 91.0996 101.669 90.3484 101.669H90.1153C89.8562 101.669 89.6749 101.623 89.5713 101.533C89.4676 101.442 89.4029 101.215 89.377 100.853C89.377 100.62 89.4352 100.419 89.5518 100.25C89.6684 100.082 89.8432 99.9979 90.0764 99.9979C91.7601 100.076 93.2884 100.114 94.6613 100.114C96.2156 100.114 97.8346 100.076 99.5183 99.9979C99.7515 99.9979 99.9263 100.082 100.043 100.25C100.159 100.419 100.218 100.62 100.218 100.853C100.192 101.241 100.114 101.474 99.9846 101.552C99.8551 101.63 99.609 101.669 99.2464 101.669C98.4952 101.669 97.9383 101.805 97.5756 102.077C97.213 102.349 96.9863 102.685 96.8957 103.087C96.805 103.488 96.7467 104.013 96.7208 104.661V111.538H108.922V104.661C108.896 104.013 108.837 103.488 108.747 103.087C108.656 102.685 108.429 102.349 108.067 102.077C107.704 101.805 107.147 101.669 106.396 101.669H106.163C105.904 101.669 105.716 101.623 105.6 101.533C105.483 101.442 105.412 101.215 105.386 100.853C105.386 100.62 105.451 100.419 105.58 100.251C105.71 100.082 105.878 99.998 106.085 99.998C107.769 100.076 109.388 100.115 110.942 100.115C112.367 100.115 113.908 100.076 115.566 99.998C115.799 99.998 115.974 100.082 116.091 100.251C116.207 100.419 116.265 100.62 116.265 100.853C116.24 101.241 116.155 101.474 116.013 101.552C115.87 101.63 115.631 101.669 115.294 101.669C114.543 101.669 113.979 101.805 113.604 102.077C113.228 102.349 112.995 102.686 112.904 103.087C112.814 103.489 112.755 104.013 112.73 104.661V120.087C112.755 120.734 112.814 121.259 112.904 121.66C112.995 122.062 113.228 122.398 113.604 122.67C113.979 122.942 114.543 123.078 115.294 123.078H115.527C115.76 123.078 115.935 123.124 116.052 123.214C116.168 123.305 116.239 123.532 116.265 123.894C116.265 124.128 116.207 124.328 116.091 124.497C115.974 124.665 115.799 124.749 115.566 124.749C113.908 124.672 112.354 124.633 110.903 124.633C109.375 124.633 107.769 124.672 106.085 124.749C105.878 124.749 105.71 124.665 105.58 124.497C105.451 124.328 105.386 124.128 105.386 123.894C105.412 123.506 105.496 123.273 105.638 123.195C105.781 123.117 106.033 123.078 106.396 123.078C107.147 123.078 107.704 122.942 108.067 122.67C108.43 122.398 108.656 122.062 108.747 121.66C108.837 121.259 108.896 120.734 108.922 120.086V113.209H96.7209V120.086C96.7468 120.734 96.8051 121.259 96.8957 121.66C96.9864 122.062 97.213 122.398 97.5757 122.67C97.9383 122.942 98.4952 123.078 99.2464 123.078H99.4796C99.7386 123.078 99.92 123.124 100.024 123.214C100.127 123.305 100.192 123.532 100.218 123.894C100.218 124.127 100.16 124.328 100.043 124.497C99.9265 124.665 99.7516 124.749 99.5185 124.749C97.8606 124.671 96.2546 124.633 94.7003 124.633C93.3015 124.633 91.7602 124.671 90.0765 124.749C89.8433 124.749 89.6685 124.665 89.5519 124.497Z" fill="#005691"/>
<path d="M119.742 124.497C119.626 124.328 119.567 124.128 119.567 123.894C119.593 123.506 119.671 123.273 119.801 123.195C119.93 123.117 120.176 123.078 120.539 123.078C121.29 123.078 121.847 122.942 122.21 122.67C122.572 122.398 122.799 122.062 122.89 121.66C122.98 121.259 123.039 120.734 123.064 120.086V104.661C123.039 104.013 122.98 103.488 122.89 103.087C122.799 102.685 122.572 102.349 122.21 102.077C121.847 101.805 121.29 101.669 120.539 101.669H120.306C120.047 101.669 119.865 101.623 119.762 101.533C119.658 101.442 119.593 101.215 119.567 100.853C119.567 100.62 119.626 100.419 119.742 100.251C119.859 100.082 120.021 99.998 120.228 99.998C121.912 100.076 123.453 100.115 124.852 100.115H136.081C136.755 100.115 137.091 100.425 137.091 101.047L137.208 106.487C137.208 106.72 137.091 106.908 136.858 107.05C136.625 107.193 136.392 107.264 136.159 107.264C135.848 107.264 135.57 107.206 135.324 107.089C135.077 106.973 134.941 106.798 134.916 106.565C134.734 105.295 134.52 104.33 134.274 103.67C134.028 103.009 133.666 102.517 133.186 102.193C132.707 101.87 132.027 101.695 131.147 101.669H126.911V111.771H133.866C134.074 111.797 134.229 111.894 134.333 112.063C134.436 112.231 134.488 112.432 134.488 112.665C134.488 112.872 134.436 113.054 134.333 113.209C134.229 113.364 134.074 113.442 133.866 113.442H126.911V120.087C126.937 120.734 126.995 121.259 127.086 121.66C127.177 122.062 127.403 122.398 127.766 122.67C128.129 122.942 128.686 123.078 129.437 123.078H129.67C129.903 123.078 130.078 123.124 130.194 123.214C130.311 123.305 130.382 123.532 130.408 123.894C130.408 124.128 130.35 124.328 130.233 124.497C130.117 124.665 129.942 124.749 129.709 124.749C128.051 124.672 126.445 124.633 124.891 124.633C123.466 124.633 121.912 124.672 120.228 124.749C120.021 124.749 119.859 124.665 119.742 124.497H119.742Z" fill="#005691"/>
<path d="M140.142 124.497C140.025 124.328 139.967 124.127 139.967 123.894C139.993 123.506 140.071 123.273 140.2 123.195C140.33 123.117 140.576 123.078 140.938 123.078C141.689 123.078 142.246 122.942 142.609 122.67C142.972 122.398 143.198 122.062 143.289 121.66C143.38 121.259 143.438 120.734 143.464 120.086V104.661C143.438 104.013 143.38 103.488 143.289 103.087C143.198 102.685 142.972 102.349 142.609 102.077C142.246 101.805 141.689 101.669 140.938 101.669H140.705C140.446 101.669 140.265 101.623 140.161 101.533C140.057 101.442 139.993 101.215 139.967 100.853C139.967 100.62 140.025 100.419 140.142 100.25C140.258 100.082 140.42 99.9979 140.627 99.9979C142.337 100.076 143.878 100.114 145.251 100.114C146.805 100.114 148.424 100.076 150.108 99.9979C150.341 99.9979 150.516 100.082 150.633 100.25C150.749 100.419 150.808 100.62 150.808 100.853C150.782 101.241 150.698 101.474 150.555 101.552C150.413 101.63 150.173 101.669 149.836 101.669C149.085 101.669 148.528 101.805 148.165 102.077C147.803 102.349 147.576 102.685 147.485 103.087C147.395 103.488 147.337 104.013 147.311 104.661V120.669C147.362 121.213 147.427 121.634 147.505 121.932C147.583 122.23 147.816 122.502 148.204 122.748C148.593 122.994 149.202 123.104 150.031 123.078H153.528C154.434 123.052 155.121 122.904 155.587 122.632C156.053 122.36 156.422 121.939 156.694 121.369C156.966 120.799 157.297 119.866 157.685 118.571C157.866 118.105 158.307 117.923 159.006 118.027C159.239 118.079 159.46 118.183 159.667 118.338C159.874 118.493 159.965 118.688 159.939 118.921L159.162 123.817C159.084 124.153 158.967 124.374 158.812 124.477C158.657 124.581 158.397 124.633 158.035 124.633H145.29C143.891 124.633 142.337 124.672 140.627 124.749C140.42 124.749 140.258 124.665 140.142 124.497L140.142 124.497Z" fill="#005691"/>
<path d="M167.341 124.497C167.225 124.328 167.166 124.128 167.166 123.895C167.192 123.506 167.277 123.273 167.419 123.195C167.562 123.117 167.801 123.079 168.138 123.079C168.889 123.079 169.446 122.943 169.809 122.671C170.171 122.399 170.398 122.062 170.489 121.66C170.579 121.259 170.638 120.734 170.664 120.087V115.23C170.664 114.815 170.022 113.306 168.74 110.703C167.458 108.1 166.415 106.073 165.612 104.622C165.094 103.689 164.524 102.996 163.903 102.543C163.281 102.09 162.517 101.772 161.61 101.591C161.506 101.565 161.351 101.533 161.144 101.494C160.937 101.455 160.801 101.377 160.736 101.261C160.671 101.144 160.639 100.956 160.639 100.697C160.639 100.387 160.723 100.179 160.891 100.076C161.06 99.9721 161.325 99.9203 161.688 99.9203C163.76 99.9203 165.379 100.199 166.545 100.756C167.71 101.313 168.747 102.381 169.653 103.961L171.479 107.653C172.619 109.932 173.37 111.409 173.733 112.082H173.85L178.163 103.573C178.396 103.055 178.512 102.679 178.512 102.446C178.512 102.135 178.35 101.928 178.027 101.824C177.703 101.721 177.178 101.669 176.453 101.669H176.22C175.961 101.669 175.779 101.623 175.676 101.533C175.572 101.442 175.507 101.216 175.482 100.853C175.482 100.62 175.54 100.419 175.656 100.251C175.773 100.082 175.935 99.998 176.142 99.998C177.826 100.076 179.238 100.115 180.377 100.115C181.336 100.115 182.644 100.076 184.302 99.998C184.535 99.998 184.71 100.082 184.826 100.251C184.943 100.419 185.001 100.62 185.001 100.853C184.975 101.216 184.911 101.442 184.807 101.533C184.703 101.623 184.522 101.669 184.263 101.669C183.201 101.669 182.346 101.87 181.698 102.271C181.051 102.673 180.468 103.353 179.95 104.311L175.559 112.587L175.093 113.539C174.86 114.019 174.704 114.459 174.627 114.86C174.549 115.262 174.51 115.748 174.51 116.317V120.087C174.536 120.734 174.594 121.259 174.685 121.66C174.776 122.062 175.002 122.398 175.365 122.67C175.727 122.942 176.284 123.078 177.036 123.078H177.269C177.528 123.078 177.709 123.124 177.813 123.214C177.916 123.305 177.981 123.532 178.007 123.894C178.007 124.128 177.949 124.328 177.832 124.497C177.716 124.665 177.554 124.749 177.347 124.749C175.689 124.672 174.134 124.633 172.684 124.633C171.155 124.633 169.549 124.672 167.866 124.749C167.633 124.749 167.458 124.665 167.341 124.497L167.341 124.497Z" fill="#005691"/>
<path d="M186.458 124.497C186.342 124.328 186.283 124.127 186.283 123.894C186.309 123.506 186.387 123.273 186.516 123.195C186.646 123.117 186.892 123.078 187.255 123.078C188.006 123.078 188.563 122.942 188.925 122.67C189.288 122.398 189.515 122.062 189.605 121.66C189.696 121.259 189.754 120.734 189.78 120.086V104.661C189.754 104.013 189.696 103.488 189.605 103.087C189.515 102.685 189.288 102.349 188.925 102.077C188.563 101.805 188.006 101.669 187.255 101.669H187.022C186.762 101.669 186.581 101.623 186.478 101.533C186.374 101.442 186.309 101.215 186.283 100.853C186.283 100.62 186.341 100.419 186.458 100.25C186.575 100.082 186.737 99.9979 186.944 99.9979C188.653 100.076 190.195 100.114 191.568 100.114H203.768C204.442 100.114 204.779 100.425 204.779 101.047L204.895 106.487C204.895 106.72 204.779 106.908 204.546 107.05C204.312 107.193 204.079 107.264 203.846 107.264C203.535 107.264 203.263 107.206 203.03 107.089C202.797 106.973 202.668 106.798 202.642 106.565C202.434 105.295 202.208 104.33 201.962 103.67C201.716 103.009 201.353 102.517 200.874 102.193C200.395 101.869 199.715 101.695 198.834 101.669H193.627V111.538H200.66C200.841 111.564 200.984 111.661 201.087 111.83C201.191 111.998 201.243 112.199 201.243 112.432C201.243 112.639 201.191 112.82 201.087 112.976C200.984 113.131 200.841 113.209 200.66 113.209H193.627V120.553C193.679 121.097 193.744 121.531 193.821 121.854C193.899 122.178 194.132 122.47 194.521 122.729C194.909 122.988 195.518 123.104 196.347 123.078H199.922C200.828 123.052 201.515 122.904 201.981 122.632C202.447 122.36 202.817 121.939 203.089 121.369C203.361 120.799 203.691 119.866 204.079 118.571C204.261 118.105 204.701 117.923 205.4 118.027C205.66 118.079 205.886 118.183 206.08 118.338C206.275 118.493 206.359 118.688 206.333 118.921L205.556 123.817C205.478 124.153 205.362 124.374 205.206 124.477C205.051 124.581 204.792 124.633 204.429 124.633H191.607C190.208 124.633 188.653 124.672 186.944 124.749C186.737 124.749 186.575 124.665 186.458 124.497Z" fill="#005691"/>
<path d="M209.539 124.497C209.423 124.328 209.364 124.127 209.364 123.894C209.39 123.506 209.468 123.273 209.598 123.195C209.727 123.117 209.973 123.078 210.336 123.078C211.087 123.078 211.644 122.942 212.007 122.67C212.369 122.398 212.596 122.062 212.686 121.66C212.777 121.259 212.835 120.734 212.861 120.086V104.699C212.835 104.026 212.777 103.495 212.686 103.106C212.596 102.718 212.369 102.381 212.007 102.096C211.644 101.811 211.087 101.669 210.336 101.669H210.103C209.844 101.669 209.662 101.623 209.559 101.533C209.455 101.442 209.39 101.215 209.364 100.853C209.364 100.62 209.423 100.419 209.539 100.25C209.656 100.082 209.831 99.9979 210.064 99.9979C211.747 100.076 213.289 100.114 214.688 100.114H221.371C223.365 100.14 225.03 100.458 226.364 101.067C227.698 101.675 228.676 102.452 229.297 103.398C229.919 104.343 230.23 105.36 230.23 106.448C230.23 107.873 229.667 109.181 228.54 110.373C227.413 111.564 225.878 112.419 223.935 112.937L224.596 113.986C225.684 115.748 226.668 117.257 227.549 118.513C228.43 119.769 229.388 120.941 230.424 122.029C231.15 122.625 231.927 122.975 232.756 123.078C232.807 123.078 232.924 123.085 233.105 123.098C233.287 123.111 233.436 123.182 233.552 123.312C233.669 123.441 233.727 123.635 233.727 123.894C233.727 124.128 233.669 124.328 233.552 124.497C233.436 124.665 233.261 124.749 233.028 124.749L232.017 124.71C230.878 124.659 230.049 124.633 229.531 124.633C228.494 124.425 227.607 124.056 226.869 123.525C226.131 122.994 225.399 122.237 224.674 121.252C223.922 120.268 222.873 118.662 221.526 116.434L220.827 115.307C220.438 114.711 220.063 114.303 219.7 114.083C219.337 113.863 218.716 113.753 217.835 113.753H216.708V120.087C216.734 120.734 216.792 121.259 216.883 121.66C216.974 122.062 217.2 122.398 217.563 122.67C217.926 122.942 218.482 123.078 219.234 123.078H219.467C219.7 123.078 219.875 123.124 219.991 123.214C220.108 123.305 220.179 123.532 220.205 123.894C220.205 124.128 220.147 124.328 220.03 124.497C219.914 124.665 219.739 124.749 219.506 124.749C217.848 124.672 216.229 124.633 214.649 124.633C213.276 124.633 211.747 124.672 210.064 124.749C209.83 124.749 209.656 124.665 209.539 124.497L209.539 124.497ZM220.128 112.238C223.987 112.238 225.917 110.424 225.917 106.798C225.917 105.321 225.412 104.078 224.402 103.068C223.391 102.057 221.734 101.552 219.428 101.552C218.677 101.552 218.107 101.643 217.718 101.824C217.33 102.005 217.064 102.316 216.922 102.757C216.779 103.197 216.708 103.871 216.708 104.777V112.238H220.128Z" fill="#005691"/>
<path d="M237.827 123.992C236.389 123.046 235.67 121.654 235.67 119.815C235.67 118.882 235.987 118.111 236.622 117.503C237.257 116.894 238.079 116.59 239.089 116.59C239.685 116.615 240.138 116.764 240.449 117.036C240.76 117.308 240.915 117.561 240.915 117.794C240.915 117.82 240.786 117.911 240.527 118.066C240.268 118.221 240.035 118.455 239.828 118.765C239.62 119.076 239.517 119.504 239.517 120.048C239.517 121.265 239.886 122.204 240.624 122.865C241.362 123.525 242.509 123.856 244.063 123.856C245.125 123.856 246.057 123.648 246.86 123.234C247.663 122.819 248.279 122.269 248.706 121.582C249.134 120.896 249.347 120.177 249.347 119.426C249.347 118.493 249.082 117.69 248.551 117.017C248.02 116.343 247.366 115.78 246.588 115.327C245.811 114.873 244.749 114.349 243.402 113.753C241.848 113.054 240.592 112.419 239.633 111.849C238.675 111.279 237.859 110.521 237.185 109.576C236.512 108.63 236.175 107.458 236.175 106.06C236.175 103.806 236.946 102.122 238.487 101.008C240.028 99.8943 242.055 99.3374 244.568 99.3374C246.537 99.3374 248.253 99.7519 249.716 100.581C251.18 101.41 251.912 102.627 251.912 104.233C251.912 105.166 251.594 105.936 250.96 106.545C250.325 107.154 249.503 107.458 248.492 107.458C247.897 107.432 247.443 107.283 247.133 107.011C246.822 106.739 246.666 106.487 246.666 106.254C246.666 106.228 246.841 106.137 247.191 105.982C247.541 105.826 247.851 105.593 248.123 105.282C248.395 104.971 248.531 104.544 248.531 104C248.531 103.042 248.162 102.29 247.424 101.746C246.686 101.202 245.747 100.93 244.607 100.93C243.027 100.93 241.829 101.3 241.013 102.038C240.197 102.776 239.789 103.689 239.789 104.777C239.789 105.684 240.035 106.442 240.527 107.05C241.019 107.659 241.809 108.261 242.897 108.857C243.778 109.323 244.736 109.79 245.773 110.256C247.43 111.007 248.745 111.694 249.716 112.315C250.688 112.937 251.504 113.753 252.164 114.763C252.825 115.773 253.155 117.03 253.155 118.532C253.155 119.827 252.747 121 251.931 122.049C251.115 123.098 250.014 123.92 248.629 124.516C247.243 125.112 245.721 125.41 244.063 125.41C241.343 125.41 239.264 124.937 237.827 123.992Z" fill="#005691"/>
<path d="M3.19052 150.544C3.14035 150.471 3.11528 150.385 3.11528 150.284C3.12644 150.117 3.15988 150.017 3.21562 149.983C3.27136 149.95 3.37726 149.933 3.53334 149.933C3.85664 149.933 4.09633 149.875 4.2524 149.758C4.40848 149.641 4.50602 149.496 4.54504 149.323C4.58405 149.15 4.60914 148.924 4.62029 148.646L4.62029 142.007C4.60914 141.728 4.58405 141.502 4.54504 141.329C4.50602 141.157 4.40848 141.012 4.2524 140.895C4.09633 140.778 3.85664 140.719 3.53334 140.719H3.433C3.32151 140.719 3.24346 140.699 3.19887 140.66C3.15427 140.621 3.12639 140.524 3.11523 140.368C3.11523 140.268 3.14032 140.181 3.19049 140.109C3.24066 140.036 3.31034 140 3.39952 140C4.13533 140.033 4.79867 140.05 5.38954 140.05H10.6405C10.9304 140.05 11.0753 140.184 11.0753 140.451L11.1255 142.793C11.1255 142.893 11.0753 142.974 10.975 143.035C10.8746 143.096 10.7743 143.127 10.674 143.127C10.5402 143.127 10.4231 143.102 10.3228 143.052C10.2224 143.002 10.1667 142.926 10.1556 142.826C10.0664 142.28 9.96883 141.865 9.86292 141.58C9.75702 141.296 9.60094 141.084 9.3947 140.945C9.18846 140.805 8.89581 140.73 8.51675 140.719H6.27589L6.27589 144.967H9.30272C9.38077 144.978 9.44209 145.02 9.48669 145.092C9.53129 145.165 9.55358 145.251 9.55358 145.351C9.55358 145.44 9.53129 145.518 9.48669 145.585C9.44209 145.652 9.38077 145.686 9.30272 145.686H6.27589V148.846C6.29818 149.08 6.32606 149.267 6.3595 149.407C6.39295 149.546 6.49328 149.671 6.66051 149.783C6.82774 149.894 7.08974 149.944 7.44649 149.933H8.98499C9.37518 149.922 9.67063 149.858 9.8713 149.741C10.072 149.624 10.2308 149.443 10.3479 149.198C10.465 148.952 10.6071 148.551 10.7743 147.993C10.8524 147.793 11.0419 147.715 11.3429 147.759C11.4544 147.782 11.5519 147.826 11.6356 147.893C11.7192 147.96 11.7554 148.044 11.7443 148.144L11.4098 150.251C11.3764 150.396 11.3262 150.491 11.2593 150.535C11.1924 150.58 11.0809 150.602 10.9248 150.602H5.4063C4.80428 150.602 4.13536 150.619 3.39956 150.652C3.31037 150.652 3.24069 150.616 3.19052 150.544Z" fill="#005691"/>
<path d="M13.1409 150.544C13.0907 150.471 13.0657 150.385 13.0657 150.284C13.0768 150.117 13.1103 150.017 13.166 149.983C13.2217 149.95 13.3276 149.933 13.4837 149.933C13.807 149.933 14.0439 149.875 14.1944 149.758C14.3449 149.641 14.4369 149.501 14.4704 149.34C14.5038 149.178 14.5261 148.947 14.5372 148.646L14.5707 142.007C14.5707 141.672 14.5345 141.419 14.462 141.246C14.3895 141.073 14.2753 140.948 14.1192 140.87C13.9631 140.791 13.7402 140.725 13.4503 140.669C13.2608 140.635 13.1437 140.602 13.0991 140.569C13.0545 140.535 13.0322 140.44 13.0322 140.284C13.0322 140.15 13.0685 140.061 13.1409 140.017C13.2134 139.972 13.3277 139.95 13.4837 139.95C14.1749 139.95 14.7212 139.997 15.1226 140.092C15.5239 140.187 15.8779 140.357 16.1845 140.602C16.491 140.847 16.8283 141.221 17.1962 141.722L21.7783 147.743H21.8284L21.795 142.007C21.7838 141.706 21.7615 141.474 21.7281 141.313C21.6946 141.151 21.6027 141.012 21.4522 140.895C21.3017 140.778 21.0647 140.719 20.7414 140.719H20.6411C20.5296 140.719 20.4488 140.7 20.3986 140.661C20.3485 140.622 20.3178 140.524 20.3067 140.368C20.3067 140.268 20.3345 140.181 20.3903 140.109C20.446 140.036 20.5185 140 20.6076 140C21.3212 140.033 21.8563 140.05 22.213 140.05C22.4249 140.05 22.8318 140.039 23.4338 140.017L23.785 140C23.8853 140 23.9606 140.036 24.0107 140.109C24.0609 140.181 24.086 140.268 24.086 140.368C24.0748 140.535 24.0414 140.635 23.9857 140.669C23.9299 140.702 23.824 140.719 23.6679 140.719C23.3446 140.719 23.1077 140.778 22.9572 140.895C22.8067 141.012 22.7147 141.151 22.6813 141.313C22.6479 141.474 22.6256 141.706 22.6144 142.007L22.581 150.435C22.5698 150.58 22.4305 150.652 22.1629 150.652C21.9511 150.652 21.7894 150.58 21.6779 150.435L15.3734 142.007H15.3232L15.3567 148.646C15.3678 148.947 15.3901 149.178 15.4236 149.34C15.457 149.501 15.549 149.641 15.6995 149.758C15.85 149.875 16.0869 149.933 16.4102 149.933H16.5105C16.622 149.933 16.7029 149.953 16.753 149.992C16.8032 150.031 16.8338 150.128 16.845 150.285C16.845 150.385 16.8199 150.471 16.7698 150.544C16.7196 150.616 16.6443 150.652 16.544 150.652C15.8305 150.619 15.2898 150.602 14.9219 150.602C14.6989 150.602 14.3087 150.613 13.7513 150.636L13.3667 150.652C13.2663 150.652 13.1911 150.616 13.1409 150.544Z" fill="#005691"/>
<path d="M28.024 150.326C27.238 149.919 26.6164 149.301 26.1593 148.47C25.7022 147.64 25.4736 146.617 25.4736 145.401C25.4736 144.275 25.7217 143.283 26.2178 142.425C26.7139 141.566 27.4023 140.9 28.2831 140.426C29.1638 139.953 30.1728 139.716 31.3099 139.716C31.8673 139.716 32.4192 139.799 32.9655 139.967C33.5118 140.134 33.9633 140.396 34.32 140.753C34.6768 141.109 34.8552 141.55 34.8552 142.074C34.8552 142.564 34.7102 142.988 34.4204 143.345C34.1305 143.701 33.7459 143.88 33.2665 143.88C33.0324 143.88 32.8066 143.824 32.5892 143.712C32.3718 143.601 32.2576 143.456 32.2464 143.278C32.2464 143.267 32.3217 143.205 32.4722 143.094C32.6227 142.982 32.762 142.832 32.8902 142.642C33.0184 142.453 33.0825 142.224 33.0825 141.957C33.0825 141.488 32.8986 141.109 32.5307 140.819C32.1628 140.53 31.689 140.385 31.1093 140.385C30.418 140.385 29.7937 140.577 29.2363 140.962C28.6789 141.346 28.2385 141.909 27.9152 142.651C27.5919 143.392 27.4303 144.275 27.4303 145.301C27.4303 146.293 27.5891 147.152 27.9069 147.876C28.2246 148.601 28.6705 149.156 29.2447 149.54C29.8188 149.925 30.485 150.117 31.2431 150.117C31.5998 150.117 31.912 150.098 32.1795 150.059C32.4471 150.02 32.737 149.95 33.0491 149.85V148.144C33.0491 147.754 33.0352 147.481 33.0073 147.325C32.9794 147.168 32.8903 147.051 32.7397 146.973C32.5892 146.895 32.3356 146.856 31.9789 146.856C31.8562 146.856 31.767 146.837 31.7113 146.798C31.6556 146.759 31.6221 146.661 31.611 146.505C31.611 146.405 31.6416 146.318 31.7029 146.246C31.7643 146.174 31.8507 146.137 31.9622 146.137C32.6645 146.171 33.2777 146.187 33.8017 146.187C34.3034 146.187 34.9054 146.171 35.6077 146.137C35.7081 146.137 35.7861 146.174 35.8419 146.246C35.8976 146.318 35.9255 146.405 35.9255 146.505C35.9143 146.661 35.8809 146.759 35.8251 146.798C35.7694 146.837 35.6802 146.856 35.5576 146.856C35.2231 146.856 34.9835 146.901 34.8385 146.99C34.6936 147.079 34.6044 147.205 34.5709 147.366C34.5375 147.528 34.5208 147.787 34.5208 148.144V150.117C33.863 150.429 33.261 150.644 32.7147 150.761C32.1684 150.878 31.4828 150.937 30.6578 150.937C29.6879 150.937 28.8099 150.733 28.024 150.326Z" fill="#005691"/>
<path d="M37.0205 150.544C36.9704 150.471 36.9454 150.385 36.9454 150.285C36.9565 150.117 36.99 150.017 37.0457 149.983C37.1014 149.95 37.2073 149.933 37.3634 149.933C37.6867 149.933 37.9264 149.875 38.0825 149.758C38.2386 149.641 38.3361 149.496 38.3751 149.323C38.4141 149.15 38.4392 148.924 38.4504 148.646V142.007C38.4392 141.728 38.4141 141.502 38.3751 141.329C38.3361 141.157 38.2386 141.012 38.0825 140.895C37.9264 140.778 37.6867 140.719 37.3634 140.719H37.2631C37.1516 140.719 37.0735 140.7 37.0289 140.66C36.9843 140.621 36.9565 140.524 36.9453 140.368C36.9453 140.268 36.9704 140.181 37.0206 140.109C37.0707 140.036 37.1404 140 37.2296 140C37.9654 140.033 38.6288 140.05 39.2196 140.05C39.8885 140.05 40.5853 140.033 41.31 140C41.4103 140 41.4856 140.036 41.5357 140.109C41.5859 140.181 41.611 140.268 41.611 140.368C41.5998 140.535 41.5636 140.635 41.5023 140.669C41.441 140.702 41.3378 140.719 41.1929 140.719C40.8696 140.719 40.6299 140.778 40.4738 140.895C40.3177 141.012 40.2202 141.157 40.1812 141.329C40.1422 141.502 40.1171 141.728 40.1059 142.007V148.897C40.1282 149.131 40.1561 149.312 40.1895 149.44C40.223 149.568 40.3233 149.685 40.4906 149.791C40.6578 149.897 40.9198 149.944 41.2765 149.933H42.7816C43.1718 149.922 43.4672 149.858 43.6679 149.741C43.8686 149.624 44.0274 149.443 44.1445 149.198C44.2616 148.952 44.4037 148.551 44.5709 147.993C44.649 147.793 44.8385 147.715 45.1395 147.759C45.2399 147.782 45.3346 147.826 45.4238 147.893C45.513 147.96 45.552 148.044 45.5408 148.144L45.2064 150.251C45.1729 150.396 45.1228 150.491 45.0559 150.535C44.989 150.58 44.8775 150.602 44.7214 150.602H39.2363C38.6343 150.602 37.9654 150.619 37.2296 150.652C37.1404 150.652 37.0707 150.616 37.0205 150.544L37.0205 150.544Z" fill="#005691"/>
<path d="M46.5528 150.544C46.5026 150.471 46.4775 150.385 46.4775 150.285C46.4887 150.117 46.5249 150.017 46.5863 149.984C46.6476 149.95 46.7507 149.933 46.8956 149.933C47.2189 149.933 47.4586 149.875 47.6147 149.758C47.7708 149.641 47.8711 149.499 47.9157 149.331C47.9603 149.164 47.9882 148.936 47.9994 148.646V142.007C47.9882 141.717 47.9603 141.488 47.9157 141.321C47.8711 141.154 47.7708 141.012 47.6147 140.895C47.4586 140.778 47.2189 140.719 46.8956 140.719H46.7953C46.695 140.719 46.6197 140.7 46.5695 140.661C46.5194 140.622 46.4887 140.524 46.4776 140.368C46.4776 140.268 46.5027 140.181 46.5528 140.109C46.603 140.036 46.6782 140 46.7786 140C47.5032 140.033 48.1666 140.05 48.7686 140.05C49.4375 140.05 50.1343 140.033 50.859 140C50.9593 140 51.0346 140.036 51.0847 140.109C51.1349 140.181 51.16 140.268 51.16 140.368C51.1488 140.535 51.1126 140.635 51.0513 140.669C50.9899 140.702 50.8812 140.719 50.7252 140.719C50.4019 140.719 50.1622 140.778 50.0061 140.895C49.85 141.012 49.7525 141.157 49.7135 141.329C49.6744 141.502 49.6494 141.728 49.6382 142.007V148.646C49.6494 148.924 49.6744 149.15 49.7135 149.323C49.7525 149.496 49.85 149.641 50.0061 149.758C50.1622 149.875 50.4019 149.933 50.7252 149.933H50.8255C50.937 149.933 51.0178 149.953 51.068 149.992C51.1181 150.031 51.1488 150.128 51.16 150.285C51.16 150.385 51.1349 150.471 51.0847 150.544C51.0345 150.616 50.9593 150.652 50.8589 150.652C50.1454 150.619 49.4542 150.602 48.7853 150.602C48.1721 150.602 47.5032 150.619 46.7786 150.652C46.6782 150.652 46.603 150.616 46.5528 150.544H46.5528Z" fill="#005691"/>
<path d="M53.6098 150.326C52.991 149.919 52.6816 149.32 52.6816 148.529C52.6816 148.127 52.8182 147.796 53.0914 147.534C53.3645 147.272 53.7185 147.141 54.1533 147.141C54.4097 147.152 54.6048 147.216 54.7386 147.333C54.8723 147.45 54.9392 147.559 54.9392 147.659C54.9392 147.67 54.8835 147.709 54.772 147.776C54.6605 147.843 54.5602 147.943 54.471 148.077C54.3818 148.211 54.3372 148.395 54.3372 148.629C54.3372 149.153 54.4961 149.557 54.8138 149.841C55.1315 150.126 55.6249 150.268 56.2938 150.268C56.7509 150.268 57.1522 150.179 57.4978 150C57.8434 149.822 58.1082 149.585 58.2922 149.29C58.4761 148.994 58.5681 148.685 58.5681 148.361C58.5681 147.96 58.4538 147.614 58.2253 147.325C57.9967 147.035 57.7152 146.792 57.3808 146.597C57.0463 146.402 56.5892 146.176 56.0095 145.92C55.3406 145.619 54.7999 145.346 54.3874 145.1C53.9749 144.855 53.6237 144.529 53.3338 144.122C53.044 143.715 52.899 143.211 52.899 142.609C52.899 141.639 53.2307 140.914 53.894 140.435C54.5574 139.955 55.4298 139.716 56.5112 139.716C57.3585 139.716 58.0971 139.894 58.727 140.251C59.3569 140.608 59.6718 141.132 59.6718 141.823C59.6718 142.224 59.5353 142.556 59.2621 142.818C58.989 143.08 58.635 143.211 58.2002 143.211C57.9438 143.2 57.7487 143.135 57.6149 143.018C57.4811 142.901 57.4142 142.793 57.4142 142.692C57.4142 142.681 57.4895 142.642 57.64 142.575C57.7905 142.508 57.9243 142.408 58.0413 142.274C58.1584 142.14 58.2169 141.957 58.2169 141.722C58.2169 141.31 58.0581 140.987 57.7403 140.752C57.4226 140.518 57.0185 140.401 56.5279 140.401C55.8479 140.401 55.3322 140.56 54.9811 140.878C54.6299 141.196 54.4543 141.589 54.4543 142.057C54.4543 142.447 54.5602 142.773 54.772 143.035C54.9839 143.297 55.3239 143.556 55.7921 143.813C56.1712 144.013 56.5837 144.214 57.0296 144.415C57.7431 144.738 58.3089 145.034 58.727 145.301C59.1451 145.569 59.4963 145.92 59.7805 146.355C60.0648 146.789 60.207 147.33 60.207 147.977C60.207 148.534 60.0314 149.039 59.6802 149.49C59.329 149.942 58.8552 150.296 58.2588 150.552C57.6623 150.808 57.0073 150.937 56.2938 150.937C55.1232 150.937 54.2285 150.733 53.6098 150.326Z" fill="#005691"/>
<path d="M61.7706 150.544C61.7204 150.471 61.6954 150.385 61.6954 150.285C61.7065 150.117 61.74 150.017 61.7957 149.984C61.8514 149.95 61.9573 149.933 62.1134 149.933C62.4367 149.933 62.6764 149.875 62.8325 149.758C62.9886 149.641 63.0861 149.496 63.1251 149.323C63.1641 149.15 63.1892 148.924 63.2004 148.646V142.007C63.1892 141.728 63.1641 141.502 63.1251 141.329C63.0861 141.157 62.9886 141.012 62.8325 140.895C62.6764 140.778 62.4367 140.719 62.1134 140.719H62.0131C61.9016 140.719 61.8235 140.7 61.7789 140.661C61.7343 140.621 61.7065 140.524 61.6953 140.368C61.6953 140.268 61.7204 140.181 61.7706 140.109C61.8207 140.036 61.896 140 61.9963 140C62.721 140.033 63.3787 140.05 63.9696 140.05C64.6385 140.05 65.3353 140.033 66.06 140C66.1603 140 66.2356 140.036 66.2857 140.109C66.3359 140.181 66.361 140.268 66.361 140.368C66.3498 140.535 66.3164 140.635 66.2606 140.669C66.2049 140.702 66.099 140.719 65.9429 140.719C65.6196 140.719 65.3799 140.778 65.2239 140.895C65.0678 141.012 64.9702 141.157 64.9312 141.329C64.8922 141.502 64.8671 141.728 64.856 142.007V144.967H70.1069V142.007C70.0958 141.728 70.0707 141.502 70.0317 141.329C69.9927 141.157 69.8951 141.012 69.7391 140.895C69.583 140.778 69.3433 140.719 69.02 140.719H68.9197C68.8082 140.719 68.7273 140.7 68.6772 140.661C68.627 140.622 68.5963 140.524 68.5852 140.368C68.5852 140.268 68.6131 140.181 68.6688 140.109C68.7245 140.036 68.797 140 68.8862 140C69.6108 140.033 70.3076 140.05 70.9765 140.05C71.5897 140.05 72.2531 140.033 72.9666 140C73.0669 140 73.1422 140.036 73.1923 140.109C73.2425 140.181 73.2676 140.268 73.2676 140.368C73.2564 140.535 73.2202 140.635 73.1589 140.669C73.0976 140.702 72.9944 140.719 72.8495 140.719C72.5262 140.719 72.2837 140.778 72.122 140.895C71.9604 141.012 71.86 141.157 71.821 141.329C71.782 141.502 71.7569 141.728 71.7458 142.007V148.646C71.7569 148.924 71.782 149.15 71.821 149.323C71.86 149.496 71.9604 149.641 72.122 149.758C72.2837 149.875 72.5262 149.933 72.8495 149.933H72.9498C73.0502 149.933 73.1254 149.953 73.1756 149.992C73.2258 150.031 73.2564 150.128 73.2676 150.285C73.2676 150.385 73.2425 150.471 73.1923 150.544C73.1421 150.616 73.0669 150.652 72.9665 150.652C72.253 150.619 71.5841 150.602 70.9598 150.602C70.302 150.602 69.6108 150.619 68.8862 150.652C68.797 150.652 68.7245 150.616 68.6688 150.544C68.6131 150.471 68.5852 150.385 68.5852 150.285C68.5963 150.117 68.6326 150.017 68.6939 149.984C68.7552 149.95 68.8639 149.933 69.02 149.933C69.3433 149.933 69.583 149.875 69.7391 149.758C69.8951 149.641 69.9927 149.496 70.0317 149.323C70.0707 149.15 70.0958 148.924 70.107 148.646V145.686H64.856V148.646C64.8671 148.924 64.8922 149.15 64.9312 149.323C64.9702 149.496 65.0678 149.641 65.2239 149.758C65.3799 149.875 65.6196 149.933 65.9429 149.933H66.0433C66.1548 149.933 66.2328 149.953 66.2774 149.992C66.322 150.031 66.3499 150.128 66.361 150.285C66.361 150.385 66.336 150.471 66.2858 150.544C66.2356 150.616 66.1604 150.652 66.06 150.652C65.3465 150.619 64.6553 150.602 63.9864 150.602C63.3844 150.602 62.721 150.619 61.9964 150.652C61.896 150.652 61.8208 150.616 61.7706 150.544Z" fill="#005691"/>
<path d="M78.4932 150.544C78.443 150.471 78.418 150.385 78.418 150.285C78.4292 150.117 78.4626 150.017 78.5184 149.983C78.5741 149.95 78.68 149.933 78.8361 149.933C79.1594 149.933 79.3991 149.875 79.5551 149.758C79.7112 149.641 79.8088 149.496 79.8478 149.323C79.8868 149.15 79.9119 148.924 79.923 148.646V142.007C79.9119 141.728 79.8868 141.502 79.8478 141.329C79.8088 141.157 79.7112 141.012 79.5551 140.895C79.3991 140.778 79.1594 140.719 78.8361 140.719H78.7357C78.6242 140.719 78.5462 140.7 78.5016 140.66C78.457 140.621 78.4291 140.524 78.418 140.368C78.418 140.268 78.4431 140.181 78.4932 140.109C78.5434 140.036 78.6131 140 78.7023 140C79.4381 140.033 80.1014 140.05 80.6923 140.05C81.3612 140.05 82.058 140.033 82.7826 140C82.883 140 82.9582 140.036 83.0084 140.109C83.0586 140.181 83.0836 140.268 83.0836 140.368C83.0725 140.535 83.0363 140.635 82.9749 140.669C82.9136 140.702 82.8105 140.719 82.6655 140.719C82.3422 140.719 82.1025 140.778 81.9465 140.895C81.7904 141.012 81.6929 141.157 81.6538 141.329C81.6148 141.502 81.5897 141.728 81.5786 142.007V148.897C81.6009 149.131 81.6288 149.312 81.6622 149.44C81.6956 149.568 81.796 149.685 81.9632 149.791C82.1304 149.897 82.3924 149.944 82.7492 149.933H84.2542C84.6444 149.922 84.9399 149.858 85.1406 149.741C85.3412 149.624 85.5001 149.443 85.6172 149.198C85.7342 148.952 85.8764 148.551 86.0436 147.993C86.1216 147.793 86.3112 147.715 86.6122 147.759C86.7125 147.782 86.8073 147.826 86.8965 147.893C86.9856 147.96 87.0247 148.044 87.0135 148.144L86.679 150.251C86.6456 150.396 86.5954 150.491 86.5285 150.535C86.4616 150.58 86.3502 150.602 86.1941 150.602H80.709C80.107 150.602 79.438 150.619 78.7022 150.652C78.6131 150.652 78.5434 150.616 78.4932 150.544L78.4932 150.544Z" fill="#005691"/>
<path d="M87.1222 150.544C87.0721 150.471 87.0469 150.385 87.0469 150.285C87.058 150.117 87.0915 150.017 87.1472 149.983C87.2029 149.95 87.2698 149.933 87.3479 149.933H87.4984C87.8328 149.933 88.0781 149.847 88.2342 149.674C88.3903 149.501 88.5157 149.306 88.6105 149.089L88.8028 148.646L91.7293 141.722C91.7962 141.555 91.8296 141.421 91.8296 141.321C91.8296 141.12 91.7516 140.975 91.5955 140.886C91.4394 140.797 91.222 140.725 90.9433 140.669C90.7538 140.635 90.6367 140.602 90.5921 140.569C90.5475 140.535 90.5252 140.44 90.5252 140.284C90.5252 140.15 90.5615 140.061 90.6339 140.017C90.7064 139.972 90.8207 139.95 90.9767 139.95C91.5342 139.95 91.9773 139.992 92.3062 140.075C92.6351 140.159 92.9222 140.326 93.1674 140.577C93.4127 140.828 93.6413 141.21 93.8531 141.722L96.6625 148.646C96.8298 149.069 96.9914 149.387 97.1475 149.599C97.3036 149.811 97.5377 149.922 97.8499 149.933H97.9502C98.0617 149.933 98.1397 149.953 98.1843 149.992C98.2289 150.031 98.2568 150.128 98.268 150.285C98.268 150.385 98.2429 150.471 98.1927 150.544C98.1425 150.616 98.0673 150.652 97.9669 150.652C97.2534 150.619 96.6403 150.602 96.1274 150.602C95.4585 150.602 94.7673 150.619 94.0538 150.652C93.9534 150.652 93.8782 150.616 93.828 150.544C93.7779 150.471 93.7528 150.385 93.7528 150.285C93.7639 150.128 93.7918 150.031 93.8364 149.992C93.881 149.953 93.959 149.933 94.0705 149.933C94.4496 149.933 94.7172 149.897 94.8732 149.825C95.0293 149.752 95.1074 149.621 95.1074 149.432C95.1074 149.287 95.0405 149.025 94.9067 148.646L94.3381 147.258H90.2076C89.9288 147.949 89.77 148.35 89.731 148.462C89.6919 148.573 89.6724 148.635 89.6724 148.646C89.5386 149.069 89.4718 149.342 89.4718 149.465C89.4718 149.655 89.5554 149.78 89.7226 149.841C89.8898 149.903 90.2076 149.933 90.6758 149.933H90.7761C90.8876 149.933 90.9657 149.953 91.0103 149.992C91.0549 150.031 91.0828 150.128 91.0939 150.285C91.0939 150.385 91.0688 150.471 91.0187 150.544C90.9685 150.616 90.8932 150.652 90.7929 150.652C90.0794 150.619 89.4718 150.602 88.9701 150.602C88.6134 150.602 88.0727 150.619 87.348 150.652C87.2477 150.652 87.1724 150.616 87.1222 150.544H87.1222ZM90.5252 146.539H94.037L92.348 142.241H92.2978L90.5252 146.539Z" fill="#005691"/>
<path d="M98.9788 150.544C98.9286 150.471 98.9035 150.385 98.9035 150.284C98.9147 150.117 98.9481 150.017 99.0039 149.983C99.0596 149.95 99.1655 149.933 99.3216 149.933C99.6449 149.933 99.8818 149.875 100.032 149.758C100.183 149.641 100.275 149.501 100.308 149.34C100.342 149.178 100.364 148.947 100.375 148.646L100.409 142.007C100.409 141.672 100.372 141.419 100.3 141.246C100.227 141.073 100.113 140.948 99.9571 140.87C99.801 140.791 99.578 140.725 99.2882 140.669C99.0987 140.635 98.9816 140.602 98.937 140.569C98.8924 140.535 98.8701 140.44 98.8701 140.284C98.8701 140.15 98.9064 140.061 98.9788 140.017C99.0513 139.972 99.1655 139.95 99.3216 139.95C100.013 139.95 100.559 139.997 100.96 140.092C101.362 140.187 101.716 140.357 102.022 140.602C102.329 140.847 102.666 141.221 103.034 141.722L107.616 147.743H107.666L107.633 142.007C107.622 141.706 107.599 141.474 107.566 141.313C107.533 141.151 107.441 141.012 107.29 140.895C107.14 140.778 106.903 140.719 106.579 140.719H106.479C106.368 140.719 106.287 140.7 106.237 140.661C106.186 140.622 106.156 140.524 106.145 140.368C106.145 140.268 106.172 140.181 106.228 140.109C106.284 140.036 106.356 140 106.446 140C107.159 140.033 107.694 140.05 108.051 140.05C108.263 140.05 108.67 140.039 109.272 140.017L109.623 140C109.723 140 109.798 140.036 109.849 140.109C109.899 140.181 109.924 140.268 109.924 140.368C109.913 140.535 109.879 140.635 109.824 140.669C109.768 140.702 109.662 140.719 109.506 140.719C109.183 140.719 108.946 140.778 108.795 140.895C108.645 141.012 108.553 141.151 108.519 141.313C108.486 141.474 108.463 141.706 108.452 142.007L108.419 150.435C108.408 150.58 108.268 150.652 108.001 150.652C107.789 150.652 107.627 150.58 107.516 150.435L101.211 142.007H101.161L101.195 148.646C101.206 148.947 101.228 149.178 101.261 149.34C101.295 149.501 101.387 149.641 101.537 149.758C101.688 149.875 101.925 149.933 102.248 149.933H102.348C102.46 149.933 102.541 149.953 102.591 149.992C102.641 150.031 102.672 150.128 102.683 150.285C102.683 150.385 102.658 150.471 102.608 150.544C102.557 150.616 102.482 150.652 102.382 150.652C101.668 150.619 101.128 150.602 100.76 150.602C100.537 150.602 100.147 150.613 99.5892 150.636L99.2046 150.652C99.1042 150.652 99.029 150.616 98.9788 150.544Z" fill="#005691"/>
<path d="M113.862 150.326C113.076 149.919 112.454 149.301 111.997 148.47C111.54 147.64 111.312 146.617 111.312 145.401C111.312 144.275 111.56 143.283 112.056 142.425C112.552 141.566 113.24 140.9 114.121 140.426C115.002 139.953 116.011 139.716 117.148 139.716C117.705 139.716 118.257 139.799 118.803 139.967C119.35 140.134 119.801 140.396 120.158 140.753C120.515 141.109 120.693 141.55 120.693 142.074C120.693 142.564 120.548 142.988 120.258 143.345C119.968 143.701 119.584 143.88 119.104 143.88C118.87 143.88 118.645 143.824 118.427 143.712C118.21 143.601 118.095 143.456 118.084 143.278C118.084 143.267 118.16 143.205 118.31 143.094C118.461 142.982 118.6 142.832 118.728 142.642C118.856 142.453 118.92 142.224 118.92 141.957C118.92 141.488 118.736 141.109 118.369 140.819C118.001 140.53 117.527 140.385 116.947 140.385C116.256 140.385 115.632 140.577 115.074 140.962C114.517 141.346 114.076 141.909 113.753 142.651C113.43 143.392 113.268 144.275 113.268 145.301C113.268 146.293 113.427 147.152 113.745 147.876C114.062 148.601 114.508 149.156 115.083 149.54C115.657 149.925 116.323 150.117 117.081 150.117C117.438 150.117 117.75 150.098 118.017 150.059C118.285 150.02 118.575 149.95 118.887 149.85V148.144C118.887 147.754 118.873 147.481 118.845 147.325C118.817 147.168 118.728 147.051 118.578 146.973C118.427 146.895 118.173 146.856 117.817 146.856C117.694 146.856 117.605 146.837 117.549 146.798C117.493 146.759 117.46 146.661 117.449 146.505C117.449 146.405 117.48 146.318 117.541 146.246C117.602 146.174 117.689 146.137 117.8 146.137C118.502 146.171 119.116 146.187 119.64 146.187C120.141 146.187 120.743 146.171 121.446 146.137C121.546 146.137 121.624 146.174 121.68 146.246C121.735 146.318 121.763 146.405 121.763 146.505C121.752 146.661 121.719 146.759 121.663 146.798C121.607 146.837 121.518 146.856 121.395 146.856C121.061 146.856 120.821 146.901 120.676 146.99C120.531 147.079 120.442 147.205 120.409 147.366C120.375 147.528 120.359 147.787 120.359 148.144V150.117C119.701 150.429 119.099 150.644 118.553 150.761C118.006 150.878 117.321 150.937 116.496 150.937C115.526 150.937 114.648 150.733 113.862 150.326Z" fill="#005691"/>
<path d="M125.87 150.485C125.262 150.184 124.802 149.788 124.49 149.298C124.178 148.807 124.022 148.278 124.022 147.709V142.007C124.011 141.728 123.985 141.502 123.946 141.329C123.907 141.157 123.81 141.012 123.654 140.895C123.498 140.778 123.258 140.719 122.935 140.719H122.834C122.723 140.719 122.645 140.699 122.6 140.66C122.556 140.621 122.528 140.524 122.517 140.368C122.517 140.267 122.542 140.181 122.592 140.109C122.642 140.036 122.717 140 122.818 140C123.531 140.033 124.189 140.05 124.791 140.05C125.471 140.05 126.168 140.033 126.881 140C126.982 140 127.057 140.036 127.107 140.109C127.157 140.181 127.182 140.267 127.182 140.368C127.171 140.524 127.14 140.621 127.09 140.66C127.04 140.699 126.959 140.719 126.848 140.719C126.491 140.719 126.229 140.775 126.062 140.886C125.895 140.998 125.792 141.137 125.752 141.304C125.713 141.472 125.688 141.706 125.677 142.007V147.224C125.677 147.993 125.858 148.64 126.221 149.164C126.583 149.688 127.288 149.95 128.336 149.95C129.362 149.95 130.089 149.713 130.519 149.239C130.948 148.765 131.162 148.172 131.162 147.458V143.06C131.162 142.302 131.134 141.767 131.079 141.455C131.023 141.143 130.912 140.942 130.744 140.853C130.577 140.764 130.287 140.719 129.875 140.719H129.774C129.674 140.719 129.599 140.699 129.549 140.66C129.498 140.621 129.468 140.524 129.457 140.368C129.457 140.267 129.482 140.181 129.532 140.109C129.582 140.036 129.657 140 129.758 140C130.482 140.033 131.107 140.05 131.631 140.05C132.166 140.05 132.79 140.033 133.504 140C133.604 140 133.679 140.036 133.729 140.109C133.779 140.181 133.805 140.267 133.805 140.368C133.793 140.524 133.763 140.621 133.713 140.66C133.662 140.699 133.582 140.719 133.47 140.719C133.024 140.719 132.715 140.758 132.542 140.836C132.369 140.914 132.252 141.101 132.191 141.396C132.129 141.692 132.099 142.213 132.099 142.96V147.626C132.099 148.373 131.893 148.994 131.48 149.49C131.068 149.986 130.552 150.351 129.933 150.586C129.314 150.82 128.693 150.937 128.069 150.937C127.21 150.937 126.477 150.786 125.87 150.485L125.87 150.485Z" fill="#005691"/>
<path d="M133.98 150.544C133.929 150.471 133.904 150.385 133.904 150.285C133.915 150.117 133.949 150.017 134.005 149.983C134.06 149.95 134.127 149.933 134.205 149.933H134.356C134.69 149.933 134.936 149.847 135.092 149.674C135.248 149.501 135.373 149.306 135.468 149.089L135.66 148.646L138.587 141.722C138.654 141.555 138.687 141.421 138.687 141.321C138.687 141.12 138.609 140.975 138.453 140.886C138.297 140.797 138.079 140.725 137.801 140.669C137.611 140.635 137.494 140.602 137.45 140.569C137.405 140.535 137.383 140.44 137.383 140.284C137.383 140.15 137.419 140.061 137.491 140.017C137.564 139.972 137.678 139.95 137.834 139.95C138.392 139.95 138.835 139.992 139.164 140.075C139.493 140.159 139.78 140.326 140.025 140.577C140.27 140.828 140.499 141.21 140.711 141.722L143.52 148.646C143.687 149.069 143.849 149.387 144.005 149.599C144.161 149.811 144.395 149.922 144.707 149.933H144.808C144.919 149.933 144.997 149.953 145.042 149.992C145.086 150.031 145.114 150.128 145.125 150.285C145.125 150.385 145.1 150.471 145.05 150.544C145 150.616 144.925 150.652 144.824 150.652C144.111 150.619 143.498 150.602 142.985 150.602C142.316 150.602 141.625 150.619 140.911 150.652C140.811 150.652 140.736 150.616 140.685 150.544C140.635 150.471 140.61 150.385 140.61 150.285C140.621 150.128 140.649 150.031 140.694 149.992C140.738 149.953 140.816 149.933 140.928 149.933C141.307 149.933 141.575 149.897 141.731 149.825C141.887 149.752 141.965 149.621 141.965 149.432C141.965 149.287 141.898 149.025 141.764 148.646L141.196 147.258H137.065C136.786 147.949 136.627 148.35 136.588 148.462C136.549 148.573 136.53 148.635 136.53 148.646C136.396 149.069 136.329 149.342 136.329 149.465C136.329 149.655 136.413 149.78 136.58 149.841C136.747 149.903 137.065 149.933 137.533 149.933H137.634C137.745 149.933 137.823 149.953 137.868 149.992C137.912 150.031 137.94 150.128 137.951 150.285C137.951 150.385 137.926 150.471 137.876 150.544C137.826 150.616 137.751 150.652 137.65 150.652C136.937 150.619 136.329 150.602 135.828 150.602C135.471 150.602 134.93 150.619 134.205 150.652C134.105 150.652 134.03 150.616 133.98 150.544H133.98ZM137.383 146.539H140.894L139.205 142.241H139.155L137.383 146.539Z" fill="#005691"/>
<path d="M148.395 150.326C147.609 149.919 146.987 149.301 146.53 148.47C146.073 147.64 145.845 146.617 145.845 145.401C145.845 144.275 146.093 143.283 146.589 142.425C147.085 141.566 147.773 140.9 148.654 140.426C149.535 139.953 150.544 139.716 151.681 139.716C152.238 139.716 152.79 139.799 153.337 139.967C153.883 140.134 154.334 140.396 154.691 140.753C155.048 141.109 155.226 141.55 155.226 142.074C155.226 142.564 155.081 142.988 154.791 143.345C154.502 143.701 154.117 143.88 153.638 143.88C153.403 143.88 153.178 143.824 152.96 143.712C152.743 143.601 152.629 143.456 152.617 143.278C152.617 143.267 152.693 143.205 152.843 143.094C152.994 142.982 153.133 142.832 153.261 142.642C153.39 142.453 153.454 142.224 153.454 141.957C153.454 141.488 153.27 141.109 152.902 140.819C152.534 140.53 152.06 140.385 151.48 140.385C150.789 140.385 150.165 140.577 149.607 140.962C149.05 141.346 148.61 141.909 148.286 142.651C147.963 143.392 147.801 144.275 147.801 145.301C147.801 146.293 147.96 147.152 148.278 147.876C148.596 148.601 149.042 149.156 149.616 149.54C150.19 149.925 150.856 150.117 151.614 150.117C151.971 150.117 152.283 150.098 152.551 150.059C152.818 150.02 153.108 149.95 153.42 149.85V148.144C153.42 147.754 153.406 147.481 153.378 147.325C153.351 147.168 153.261 147.051 153.111 146.973C152.96 146.895 152.707 146.856 152.35 146.856C152.227 146.856 152.138 146.837 152.082 146.798C152.027 146.759 151.993 146.661 151.982 146.505C151.982 146.405 152.013 146.318 152.074 146.246C152.135 146.174 152.222 146.137 152.333 146.137C153.036 146.171 153.649 146.187 154.173 146.187C154.674 146.187 155.276 146.171 155.979 146.137C156.079 146.137 156.157 146.174 156.213 146.246C156.269 146.318 156.297 146.405 156.297 146.505C156.285 146.661 156.252 146.759 156.196 146.798C156.141 146.837 156.051 146.856 155.929 146.856C155.594 146.856 155.355 146.901 155.21 146.99C155.065 147.079 154.975 147.205 154.942 147.366C154.909 147.528 154.892 147.787 154.892 148.144V150.117C154.234 150.429 153.632 150.644 153.086 150.761C152.54 150.878 151.854 150.937 151.029 150.937C150.059 150.937 149.181 150.733 148.395 150.326Z" fill="#005691"/>
<path d="M157.392 150.544C157.342 150.471 157.316 150.385 157.316 150.284C157.328 150.117 157.361 150.017 157.417 149.983C157.473 149.95 157.578 149.933 157.735 149.933C158.058 149.933 158.298 149.875 158.454 149.758C158.61 149.641 158.707 149.496 158.746 149.323C158.785 149.15 158.81 148.924 158.821 148.646V142.007C158.81 141.728 158.785 141.502 158.746 141.329C158.707 141.157 158.61 141.012 158.454 140.895C158.298 140.778 158.058 140.719 157.735 140.719H157.634C157.523 140.719 157.445 140.699 157.4 140.66C157.355 140.621 157.328 140.524 157.316 140.368C157.316 140.268 157.341 140.181 157.392 140.109C157.442 140.036 157.512 140 157.601 140C158.337 140.033 159 140.05 159.591 140.05H164.842C165.132 140.05 165.276 140.184 165.276 140.451L165.327 142.793C165.327 142.893 165.276 142.974 165.176 143.035C165.076 143.096 164.975 143.127 164.875 143.127C164.741 143.127 164.624 143.102 164.524 143.052C164.424 143.002 164.368 142.926 164.357 142.826C164.268 142.28 164.17 141.865 164.064 141.58C163.958 141.296 163.802 141.084 163.596 140.945C163.39 140.805 163.097 140.73 162.718 140.719H160.477V144.967H163.504C163.582 144.978 163.643 145.02 163.688 145.092C163.732 145.165 163.755 145.251 163.755 145.351C163.755 145.44 163.732 145.518 163.688 145.585C163.643 145.652 163.582 145.686 163.504 145.686H160.477V148.846C160.499 149.08 160.527 149.267 160.561 149.407C160.594 149.546 160.694 149.671 160.862 149.783C161.029 149.894 161.291 149.944 161.648 149.933H163.186C163.576 149.922 163.872 149.858 164.072 149.741C164.273 149.624 164.432 149.443 164.549 149.198C164.666 148.952 164.808 148.551 164.976 147.993C165.054 147.793 165.243 147.715 165.544 147.759C165.656 147.782 165.753 147.826 165.837 147.893C165.92 147.96 165.957 148.044 165.945 148.144L165.611 150.251C165.578 150.396 165.527 150.491 165.46 150.535C165.394 150.58 165.282 150.602 165.126 150.602H159.607C159.005 150.602 158.337 150.619 157.601 150.652C157.512 150.652 157.442 150.616 157.392 150.544Z" fill="#005691"/>
<path d="M173.647 150.259C172.861 149.808 172.237 149.164 171.774 148.328C171.311 147.492 171.08 146.516 171.08 145.401C171.08 144.275 171.303 143.283 171.749 142.425C172.195 141.566 172.83 140.9 173.655 140.426C174.48 139.953 175.445 139.716 176.548 139.716C177.507 139.716 178.36 139.908 179.107 140.293C179.854 140.677 180.227 141.271 180.227 142.074C180.239 142.575 180.088 143.002 179.776 143.353C179.464 143.704 179.046 143.88 178.522 143.88C178.321 143.88 178.151 143.843 178.012 143.771C177.872 143.699 177.769 143.612 177.702 143.512C177.635 143.411 177.608 143.333 177.619 143.278C177.619 143.255 177.697 143.194 177.853 143.094C178.009 142.993 178.148 142.854 178.271 142.676C178.394 142.497 178.455 142.28 178.455 142.023C178.455 141.522 178.285 141.123 177.945 140.828C177.605 140.532 177.134 140.385 176.532 140.385C175.852 140.385 175.247 140.577 174.717 140.962C174.188 141.346 173.775 141.909 173.48 142.651C173.184 143.392 173.037 144.275 173.037 145.301C173.037 146.193 173.195 147.004 173.513 147.734C173.831 148.465 174.28 149.044 174.859 149.473C175.439 149.903 176.102 150.117 176.849 150.117C177.451 150.117 177.967 149.992 178.396 149.741C178.826 149.49 179.213 149.086 179.559 148.529C179.614 148.428 179.692 148.378 179.793 148.378C179.882 148.378 179.982 148.412 180.094 148.478C180.272 148.601 180.361 148.724 180.361 148.846C180.361 148.913 180.339 148.969 180.294 149.014C179.871 149.549 179.472 149.953 179.099 150.226C178.725 150.499 178.321 150.686 177.886 150.786C177.451 150.887 176.905 150.937 176.247 150.937C175.3 150.937 174.433 150.711 173.647 150.259Z" fill="#005691"/>
<path d="M184.266 150.176C183.458 149.669 182.833 148.997 182.393 148.161C181.953 147.325 181.732 146.427 181.732 145.468C181.732 144.298 181.997 143.278 182.527 142.408C183.056 141.538 183.734 140.872 184.559 140.41C185.384 139.947 186.22 139.716 187.067 139.716C188.137 139.716 189.082 139.969 189.902 140.477C190.721 140.984 191.351 141.653 191.791 142.483C192.232 143.314 192.452 144.209 192.452 145.167C192.452 146.338 192.184 147.361 191.649 148.236C191.114 149.111 190.428 149.78 189.592 150.243C188.756 150.705 187.914 150.937 187.067 150.937C186.008 150.937 185.074 150.683 184.266 150.176ZM188.948 149.524C189.456 149.072 189.835 148.465 190.086 147.701C190.336 146.937 190.462 146.093 190.462 145.167C190.462 144.309 190.334 143.52 190.077 142.801C189.821 142.082 189.436 141.508 188.923 141.079C188.41 140.649 187.786 140.435 187.05 140.435C185.935 140.435 185.097 140.906 184.533 141.848C183.97 142.79 183.689 143.98 183.689 145.418C183.689 146.288 183.814 147.085 184.065 147.81C184.316 148.534 184.692 149.114 185.194 149.549C185.696 149.984 186.314 150.201 187.05 150.201C187.808 150.201 188.441 149.975 188.948 149.524Z" fill="#005691"/>
<path d="M200.043 150.519L196.281 142.007H196.231L196.264 148.646C196.275 148.947 196.297 149.178 196.331 149.34C196.364 149.501 196.456 149.641 196.607 149.758C196.757 149.875 196.994 149.933 197.317 149.933H197.418C197.529 149.933 197.61 149.953 197.66 149.992C197.71 150.031 197.741 150.128 197.752 150.285C197.752 150.385 197.727 150.471 197.677 150.544C197.627 150.616 197.552 150.652 197.451 150.652L197.033 150.636C196.52 150.613 196.152 150.602 195.929 150.602C195.55 150.602 194.999 150.619 194.274 150.652C194.174 150.652 194.098 150.616 194.048 150.544C193.998 150.471 193.973 150.385 193.973 150.285C193.984 150.117 194.018 150.017 194.073 149.984C194.129 149.95 194.235 149.933 194.391 149.933C194.714 149.933 194.951 149.875 195.102 149.758C195.252 149.641 195.344 149.501 195.378 149.34C195.411 149.178 195.433 148.947 195.445 148.646L195.478 142.007C195.478 141.661 195.439 141.402 195.361 141.229C195.283 141.056 195.169 140.934 195.018 140.861C194.868 140.789 194.647 140.725 194.358 140.669C194.313 140.658 194.246 140.644 194.157 140.627C194.068 140.61 194.009 140.577 193.981 140.527C193.953 140.477 193.939 140.396 193.939 140.284C193.939 140.151 193.976 140.061 194.048 140.017C194.121 139.972 194.235 139.95 194.391 139.95C195.049 139.95 195.589 139.992 196.013 140.075C196.437 140.159 196.807 140.329 197.125 140.585C197.443 140.842 197.708 141.221 197.919 141.722L200.796 148.177H200.846L204.14 140.05H205.094C205.707 140.05 206.37 140.033 207.084 140C207.184 140 207.259 140.036 207.309 140.109C207.36 140.181 207.385 140.268 207.385 140.368C207.373 140.535 207.337 140.635 207.276 140.669C207.215 140.702 207.111 140.719 206.967 140.719C206.643 140.719 206.404 140.778 206.247 140.895C206.091 141.012 205.994 141.157 205.955 141.329C205.916 141.502 205.891 141.728 205.88 142.007V148.646C205.891 148.924 205.916 149.15 205.955 149.323C205.994 149.496 206.091 149.641 206.247 149.758C206.404 149.875 206.643 149.933 206.967 149.933H207.067C207.167 149.933 207.242 149.953 207.293 149.992C207.343 150.031 207.373 150.128 207.385 150.285C207.385 150.385 207.359 150.471 207.309 150.544C207.259 150.616 207.184 150.652 207.084 150.652C206.37 150.619 205.701 150.602 205.077 150.602C204.43 150.602 203.745 150.619 203.02 150.652C202.92 150.652 202.844 150.616 202.794 150.544C202.744 150.471 202.719 150.385 202.719 150.285C202.73 150.117 202.764 150.017 202.819 149.984C202.875 149.95 202.981 149.933 203.137 149.933C203.46 149.933 203.7 149.875 203.856 149.758C204.012 149.641 204.11 149.496 204.149 149.323C204.188 149.15 204.213 148.924 204.224 148.646V142.007H204.174L200.729 150.519C200.684 150.63 200.573 150.686 200.394 150.686C200.227 150.686 200.11 150.63 200.043 150.519H200.043Z" fill="#005691"/>
<path d="M214.91 150.519L211.148 142.007H211.098L211.131 148.646C211.142 148.947 211.165 149.178 211.198 149.34C211.231 149.501 211.323 149.641 211.474 149.758C211.624 149.875 211.861 149.933 212.185 149.933H212.285C212.397 149.933 212.477 149.953 212.527 149.992C212.578 150.031 212.608 150.128 212.619 150.285C212.619 150.385 212.594 150.471 212.544 150.544C212.494 150.616 212.419 150.652 212.318 150.652L211.9 150.636C211.388 150.613 211.02 150.602 210.797 150.602C210.418 150.602 209.866 150.619 209.141 150.652C209.041 150.652 208.966 150.616 208.915 150.544C208.865 150.471 208.84 150.385 208.84 150.285C208.851 150.117 208.885 150.017 208.94 149.984C208.996 149.95 209.102 149.933 209.258 149.933C209.581 149.933 209.818 149.875 209.969 149.758C210.119 149.641 210.211 149.501 210.245 149.34C210.278 149.178 210.301 148.947 210.312 148.646L210.345 142.007C210.345 141.661 210.306 141.402 210.228 141.229C210.15 141.056 210.036 140.934 209.885 140.861C209.735 140.789 209.515 140.725 209.225 140.669C209.18 140.658 209.113 140.644 209.024 140.627C208.935 140.61 208.876 140.577 208.848 140.527C208.821 140.477 208.807 140.396 208.807 140.284C208.807 140.151 208.843 140.061 208.915 140.017C208.988 139.972 209.102 139.95 209.258 139.95C209.916 139.95 210.457 139.992 210.88 140.075C211.304 140.159 211.675 140.329 211.992 140.585C212.31 140.842 212.575 141.221 212.787 141.722L215.663 148.177H215.713L219.008 140.05H219.961C220.574 140.05 221.237 140.033 221.951 140C222.051 140 222.126 140.036 222.177 140.109C222.227 140.181 222.252 140.268 222.252 140.368C222.241 140.535 222.204 140.635 222.143 140.669C222.082 140.702 221.979 140.719 221.834 140.719C221.51 140.719 221.271 140.778 221.115 140.895C220.959 141.012 220.861 141.157 220.822 141.329C220.783 141.502 220.758 141.728 220.747 142.007V148.646C220.758 148.924 220.783 149.15 220.822 149.323C220.861 149.496 220.959 149.641 221.115 149.758C221.271 149.875 221.51 149.933 221.834 149.933H221.934C222.034 149.933 222.11 149.953 222.16 149.992C222.21 150.031 222.241 150.128 222.252 150.285C222.252 150.385 222.227 150.471 222.177 150.544C222.126 150.616 222.051 150.652 221.951 150.652C221.237 150.619 220.568 150.602 219.944 150.602C219.297 150.602 218.612 150.619 217.887 150.652C217.787 150.652 217.712 150.616 217.661 150.544C217.611 150.471 217.586 150.385 217.586 150.285C217.597 150.117 217.631 150.017 217.686 149.984C217.742 149.95 217.848 149.933 218.004 149.933C218.327 149.933 218.567 149.875 218.723 149.758C218.879 149.641 218.977 149.496 219.016 149.323C219.055 149.15 219.08 148.924 219.091 148.646V142.007H219.041L215.596 150.519C215.551 150.63 215.44 150.686 215.262 150.686C215.094 150.686 214.977 150.63 214.91 150.519H214.91Z" fill="#005691"/>
<path d="M226.775 150.485C226.167 150.184 225.707 149.788 225.395 149.298C225.083 148.807 224.927 148.278 224.927 147.709V142.007C224.916 141.728 224.891 141.502 224.852 141.329C224.813 141.157 224.715 141.012 224.559 140.895C224.403 140.778 224.163 140.719 223.84 140.719H223.74C223.628 140.719 223.55 140.699 223.506 140.66C223.461 140.621 223.433 140.524 223.422 140.368C223.422 140.267 223.447 140.181 223.497 140.109C223.547 140.036 223.623 140 223.723 140C224.436 140.033 225.094 140.05 225.696 140.05C226.376 140.05 227.073 140.033 227.787 140C227.887 140 227.962 140.036 228.012 140.109C228.062 140.181 228.088 140.267 228.088 140.368C228.076 140.524 228.046 140.621 227.996 140.66C227.945 140.699 227.865 140.719 227.753 140.719C227.396 140.719 227.134 140.775 226.967 140.886C226.8 140.998 226.697 141.137 226.658 141.304C226.619 141.472 226.594 141.706 226.583 142.007V147.224C226.583 147.993 226.764 148.64 227.126 149.164C227.488 149.688 228.193 149.95 229.241 149.95C230.267 149.95 230.995 149.713 231.424 149.239C231.853 148.765 232.068 148.172 232.068 147.458V143.06C232.068 142.302 232.04 141.767 231.984 141.455C231.928 141.143 231.817 140.942 231.65 140.853C231.482 140.764 231.192 140.719 230.78 140.719H230.68C230.579 140.719 230.504 140.699 230.454 140.66C230.404 140.621 230.373 140.524 230.362 140.368C230.362 140.267 230.387 140.181 230.437 140.109C230.487 140.036 230.563 140 230.663 140C231.388 140.033 232.012 140.05 232.536 140.05C233.071 140.05 233.695 140.033 234.409 140C234.509 140 234.584 140.036 234.635 140.109C234.685 140.181 234.71 140.267 234.71 140.368C234.699 140.524 234.668 140.621 234.618 140.66C234.568 140.699 234.487 140.719 234.375 140.719C233.929 140.719 233.62 140.758 233.447 140.836C233.274 140.914 233.157 141.101 233.096 141.396C233.035 141.692 233.004 142.213 233.004 142.96V147.626C233.004 148.373 232.798 148.994 232.385 149.49C231.973 149.986 231.457 150.351 230.838 150.586C230.22 150.82 229.598 150.937 228.974 150.937C228.115 150.937 227.382 150.786 226.775 150.485L226.775 150.485Z" fill="#005691"/>
<path d="M235.823 150.544C235.772 150.471 235.747 150.385 235.747 150.284C235.758 150.117 235.792 150.017 235.848 149.983C235.903 149.95 236.009 149.933 236.165 149.933C236.489 149.933 236.726 149.875 236.876 149.758C237.027 149.641 237.119 149.501 237.152 149.34C237.185 149.178 237.208 148.947 237.219 148.646L237.252 142.007C237.252 141.672 237.216 141.419 237.144 141.246C237.071 141.073 236.957 140.948 236.801 140.87C236.645 140.791 236.422 140.725 236.132 140.669C235.942 140.635 235.825 140.602 235.781 140.569C235.736 140.535 235.714 140.44 235.714 140.284C235.714 140.15 235.75 140.061 235.823 140.017C235.895 139.972 236.009 139.95 236.165 139.95C236.857 139.95 237.403 139.997 237.804 140.092C238.206 140.187 238.56 140.357 238.866 140.602C239.173 140.847 239.51 141.221 239.878 141.722L244.46 147.743H244.51L244.477 142.007C244.465 141.706 244.443 141.474 244.41 141.313C244.376 141.151 244.284 141.012 244.134 140.895C243.983 140.778 243.746 140.719 243.423 140.719H243.323C243.211 140.719 243.13 140.7 243.08 140.661C243.03 140.622 242.999 140.524 242.988 140.368C242.988 140.268 243.016 140.181 243.072 140.109C243.128 140.036 243.2 140 243.289 140C244.003 140.033 244.538 140.05 244.895 140.05C245.107 140.05 245.513 140.039 246.115 140.017L246.467 140C246.567 140 246.642 140.036 246.692 140.109C246.743 140.181 246.768 140.268 246.768 140.368C246.756 140.535 246.723 140.635 246.667 140.669C246.612 140.702 246.506 140.719 246.35 140.719C246.026 140.719 245.789 140.778 245.639 140.895C245.488 141.012 245.396 141.151 245.363 141.313C245.329 141.474 245.307 141.706 245.296 142.007L245.263 150.435C245.251 150.58 245.112 150.652 244.845 150.652C244.633 150.652 244.471 150.58 244.36 150.435L238.055 142.007H238.005L238.038 148.646C238.049 148.947 238.072 149.178 238.105 149.34C238.139 149.501 238.231 149.641 238.381 149.758C238.532 149.875 238.769 149.933 239.092 149.933H239.192C239.304 149.933 239.385 149.953 239.435 149.992C239.485 150.031 239.515 150.128 239.527 150.285C239.527 150.385 239.502 150.471 239.451 150.544C239.401 150.616 239.326 150.652 239.226 150.652C238.512 150.619 237.971 150.602 237.604 150.602C237.381 150.602 236.99 150.613 236.433 150.636L236.048 150.652C235.948 150.652 235.873 150.616 235.823 150.544Z" fill="#005691"/>
<path d="M248.113 150.544C248.063 150.471 248.038 150.385 248.038 150.285C248.049 150.117 248.085 150.017 248.147 149.984C248.208 149.95 248.311 149.933 248.456 149.933C248.779 149.933 249.019 149.875 249.175 149.758C249.331 149.641 249.432 149.499 249.476 149.331C249.521 149.164 249.549 148.936 249.56 148.646V142.007C249.549 141.717 249.521 141.488 249.476 141.321C249.432 141.154 249.331 141.012 249.175 140.895C249.019 140.778 248.779 140.719 248.456 140.719H248.356C248.256 140.719 248.18 140.7 248.13 140.661C248.08 140.622 248.049 140.524 248.038 140.368C248.038 140.268 248.063 140.181 248.113 140.109C248.164 140.036 248.239 140 248.339 140C249.064 140.033 249.727 140.05 250.329 140.05C250.998 140.05 251.695 140.033 252.42 140C252.52 140 252.595 140.036 252.645 140.109C252.695 140.181 252.721 140.268 252.721 140.368C252.709 140.535 252.673 140.635 252.612 140.669C252.55 140.702 252.442 140.719 252.286 140.719C251.962 140.719 251.723 140.778 251.567 140.895C251.411 141.012 251.313 141.157 251.274 141.329C251.235 141.502 251.21 141.728 251.199 142.007V148.646C251.21 148.924 251.235 149.15 251.274 149.323C251.313 149.496 251.411 149.641 251.567 149.758C251.723 149.875 251.962 149.933 252.286 149.933H252.386C252.498 149.933 252.578 149.953 252.629 149.992C252.679 150.031 252.709 150.128 252.721 150.285C252.721 150.385 252.695 150.471 252.645 150.544C252.595 150.616 252.52 150.652 252.419 150.652C251.706 150.619 251.015 150.602 250.346 150.602C249.733 150.602 249.064 150.619 248.339 150.652C248.239 150.652 248.164 150.616 248.113 150.544H248.113Z" fill="#005691"/>
<path d="M256.19 150.544C256.14 150.471 256.115 150.385 256.115 150.285C256.126 150.117 256.16 150.017 256.215 149.983C256.271 149.95 256.377 149.933 256.533 149.933C256.856 149.933 257.096 149.875 257.252 149.758C257.408 149.641 257.506 149.496 257.545 149.323C257.584 149.15 257.609 148.924 257.62 148.646V140.669H256.466C256.087 140.68 255.794 140.761 255.588 140.911C255.382 141.062 255.226 141.285 255.12 141.58C255.014 141.876 254.922 142.297 254.844 142.843C254.833 142.932 254.766 143.004 254.643 143.06C254.521 143.116 254.393 143.144 254.259 143.144C254.158 143.144 254.066 143.113 253.983 143.052C253.899 142.991 253.857 142.91 253.857 142.809L253.908 140.451C253.908 140.184 254.058 140.05 254.359 140.05H262.537C262.826 140.05 262.971 140.184 262.971 140.451L263.038 142.809C263.038 142.91 262.994 142.991 262.904 143.052C262.815 143.113 262.721 143.144 262.62 143.144C262.486 143.144 262.361 143.116 262.244 143.06C262.127 143.004 262.063 142.932 262.052 142.843C261.962 142.285 261.868 141.862 261.767 141.572C261.667 141.282 261.511 141.062 261.299 140.911C261.087 140.761 260.792 140.68 260.413 140.669H259.276V148.646C259.287 148.924 259.312 149.15 259.351 149.323C259.39 149.496 259.487 149.641 259.643 149.758C259.8 149.875 260.039 149.933 260.363 149.933H260.463C260.563 149.933 260.638 149.953 260.689 149.992C260.739 150.031 260.769 150.128 260.781 150.285C260.781 150.385 260.756 150.471 260.705 150.544C260.655 150.616 260.58 150.652 260.48 150.652C259.766 150.619 259.108 150.602 258.506 150.602C257.837 150.602 257.141 150.619 256.416 150.652C256.316 150.652 256.24 150.616 256.19 150.544H256.19Z" fill="#005691"/>
<path d="M266.408 150.544C266.358 150.471 266.333 150.385 266.333 150.285C266.344 150.117 266.38 150.017 266.442 149.984C266.503 149.95 266.606 149.933 266.751 149.933C267.074 149.933 267.314 149.875 267.47 149.758C267.626 149.641 267.724 149.496 267.763 149.323C267.802 149.15 267.827 148.924 267.838 148.646V146.555C267.838 146.377 267.562 145.728 267.01 144.607C266.458 143.487 266.01 142.614 265.664 141.99C265.441 141.589 265.196 141.29 264.928 141.095C264.661 140.9 264.332 140.764 263.942 140.686C263.897 140.674 263.83 140.661 263.741 140.644C263.652 140.627 263.593 140.594 263.565 140.543C263.537 140.493 263.523 140.412 263.523 140.301C263.523 140.167 263.56 140.078 263.632 140.033C263.705 139.989 263.819 139.967 263.975 139.967C264.867 139.967 265.564 140.086 266.065 140.326C266.567 140.566 267.013 141.026 267.403 141.706L268.189 143.294C268.68 144.275 269.003 144.911 269.159 145.201H269.209L271.065 141.538C271.166 141.316 271.216 141.154 271.216 141.054C271.216 140.92 271.146 140.831 271.007 140.786C270.868 140.741 270.642 140.719 270.33 140.719H270.229C270.118 140.719 270.04 140.7 269.995 140.661C269.951 140.622 269.923 140.524 269.912 140.368C269.912 140.268 269.937 140.181 269.987 140.109C270.037 140.036 270.107 140 270.196 140C270.92 140.033 271.528 140.05 272.019 140.05C272.431 140.05 272.994 140.033 273.708 140C273.808 140 273.883 140.036 273.933 140.109C273.984 140.181 274.009 140.268 274.009 140.368C273.997 140.524 273.97 140.622 273.925 140.661C273.88 140.7 273.802 140.719 273.691 140.719C273.234 140.719 272.866 140.805 272.587 140.978C272.308 141.151 272.058 141.444 271.835 141.856L269.945 145.418L269.744 145.828C269.644 146.034 269.577 146.224 269.544 146.396C269.51 146.569 269.493 146.778 269.493 147.024V148.646C269.505 148.924 269.53 149.15 269.569 149.323C269.608 149.496 269.705 149.641 269.861 149.758C270.017 149.875 270.257 149.933 270.58 149.933H270.681C270.792 149.933 270.87 149.953 270.915 149.992C270.959 150.031 270.987 150.128 270.998 150.285C270.998 150.385 270.973 150.471 270.923 150.544C270.873 150.616 270.803 150.652 270.714 150.652C270.001 150.619 269.332 150.602 268.707 150.602C268.05 150.602 267.358 150.619 266.634 150.652C266.533 150.652 266.458 150.616 266.408 150.544L266.408 150.544Z" fill="#005691"/>
</g>
</g>
<defs>
<clipPath id="clip0_375_4018">
<rect width="277.5" height="150.856" fill="white" transform="translate(0.25)"/>
</clipPath>
<clipPath id="clip1_375_4018">
<rect width="271.097" height="151" fill="white" transform="translate(2.95117)"/>
</clipPath>
</defs>
</svg>
