<svg width="40" height="40" viewBox="0 0 40 40" fill="none" xmlns="http://www.w3.org/2000/svg">
<g clip-path="url(#clip0_375_5774)">
<path fill-rule="evenodd" clip-rule="evenodd" d="M24.1541 24.6145C23.2994 25.4385 22.3919 26.1697 21.9174 26.2923C21.8967 26.2034 21.874 26.1146 21.8488 26.0262C21.5108 24.5988 20.1491 22.8751 19.2631 22.1346C17.8094 20.718 16.0744 19.5762 14.8315 18.9544C16.4384 19.2045 17.9584 19.7826 19.4068 20.6326C20.7062 21.3953 21.9491 22.377 23.1448 23.5359C23.4669 23.8989 23.8037 24.2584 24.1541 24.6145Z" fill="#1776CC"/>
<path fill-rule="evenodd" clip-rule="evenodd" d="M26.1399 22.2219C26.0086 22.6285 25.2093 23.5765 24.315 24.4575C23.9748 24.0911 23.6301 23.7385 23.2823 23.4004C22.1764 22.153 21.247 20.8631 20.5345 19.5215C19.719 17.985 19.1879 16.38 19.002 14.6919C19.5745 15.9982 20.6948 17.8904 22.1175 19.466C23.2883 20.7624 24.6643 21.8463 26.1119 22.2188C26.1214 22.2215 26.1312 22.2223 26.1399 22.2219Z" fill="#208FD3"/>
<path fill-rule="evenodd" clip-rule="evenodd" d="M27.4898 12.2407C25.6325 14.8201 24.6137 16.8517 22.044 19.0927C20.5484 17.367 19.4221 15.3282 18.9771 14.1199C20.3504 14.4667 21.7441 14.4537 23.1371 14.1409C24.5975 13.8132 26.0561 13.1565 27.4898 12.2407Z" fill="#1776CC"/>
<path fill-rule="evenodd" clip-rule="evenodd" d="M33.9559 7.78977C36.0252 8.22893 38.065 8.88671 40.0004 9.8462C35.9071 9.60575 30.9494 10.7697 27.7485 11.975L27.7708 11.9329C28.2147 11.089 30.0845 7.53439 33.9559 7.78977Z" fill="#004693"/>
<path fill-rule="evenodd" clip-rule="evenodd" d="M19.805 8.06886C20.2022 7.5114 20.8193 7.16528 21.5333 7.12431C25.0679 6.92291 29.0725 6.89267 33.0168 7.60558C29.667 7.91342 28.0183 11.0469 27.6008 11.8413C27.5513 11.934 27.5389 11.9788 27.5306 11.9842V11.9845C26.069 12.9371 24.5817 13.6183 23.0956 13.9518C21.7076 14.263 20.3191 14.2715 18.9526 13.9139L18.9424 13.9108C18.9137 13.07 18.9733 11.7418 19.1532 10.5055C19.2932 9.54026 19.5059 8.63399 19.805 8.06886Z" fill="#208FD3"/>
<path fill-rule="evenodd" clip-rule="evenodd" d="M16.2212 12.6392C17.8118 11.7686 18.4851 11.0576 19.1074 9.64285C19.0527 9.91163 19.0052 10.1923 18.9637 10.4775C18.7861 11.6958 18.725 13.006 18.7495 13.8595C18.1305 13.6906 17.6575 13.5241 17.2385 13.312C16.8816 13.132 16.5622 12.9176 16.2212 12.6392Z" fill="#004693"/>
<path fill-rule="evenodd" clip-rule="evenodd" d="M12.7677 14.883C12.4992 14.1792 12.0846 13.3423 11.5577 12.6565C11.2571 12.266 10.0995 11.1491 10.1621 10.9255C10.4156 10.4956 11.973 11.9019 12.4411 11.6358C13.3173 11.1388 14.854 11.8644 15.7547 12.4651C15.7581 12.4861 15.7686 12.5061 15.7856 12.5214C16.2624 12.9452 16.6746 13.2446 17.1533 13.4862C17.5976 13.7106 18.0978 13.8844 18.7579 14.0628V14.0636V14.0655V14.0663V14.0667V14.0674V14.0682L18.7586 14.069V14.0697C18.8706 16.0216 19.4357 17.8625 20.3662 19.6145C20.8769 20.5767 21.4985 21.5121 22.2144 22.4241C21.3378 21.6698 20.4352 21.012 19.5028 20.4649C17.8503 19.4951 16.1043 18.8741 14.2429 18.6838L14.2014 18.6662C13.9332 17.4532 13.4448 16.2138 12.7677 14.883Z" fill="#50BCFF"/>
<path fill-rule="evenodd" clip-rule="evenodd" d="M9.56396 18.8955C11.1874 18.2499 12.0202 17.5183 12.996 15.793C13.4482 16.7747 13.7862 17.7101 13.9959 18.6275C13.1597 18.5704 11.8229 18.5907 10.5786 18.7389C10.2293 18.781 9.88646 18.8323 9.56396 18.8955Z" fill="#004693"/>
<path fill-rule="evenodd" clip-rule="evenodd" d="M7.485 33.4046C6.80116 29.2002 6.9494 24.9273 7.26699 21.182C7.32395 20.5108 7.63777 19.9311 8.13151 19.5429C8.14093 19.541 8.15036 19.5379 8.15904 19.5333C8.72218 19.24 9.63271 19.0474 10.6017 18.9326C11.8445 18.7844 13.1783 18.7649 14.0028 18.8235C14.0138 18.838 14.0285 18.8495 14.0462 18.8564C14.1646 19.4299 14.2321 19.9977 14.2453 20.5667C14.2948 22.666 13.6041 24.7872 12.0007 27.2885C11.9947 27.2977 11.9494 27.308 11.8536 27.3566C10.9996 27.7881 7.51405 29.5513 7.485 33.4046Z" fill="#1776CC"/>
<path fill-rule="evenodd" clip-rule="evenodd" d="M11.8887 27.5554C10.5968 30.7646 9.28155 35.8067 9.39772 40C8.65014 38.3203 8.11604 36.5713 7.74375 34.7982C7.77996 34.7783 7.80033 34.7374 7.79279 34.6945C6.95694 30.1367 10.8767 28.068 11.8887 27.5554Z" fill="#004693"/>
<path fill-rule="evenodd" clip-rule="evenodd" d="M19.0115 22.1599C16.9781 24.4308 14.6818 25.5928 12.207 27.3207C13.7995 24.8163 14.4852 22.6814 14.4358 20.5614C14.423 20.007 14.3593 19.4541 14.2488 18.8963C15.4437 19.4093 17.387 20.6093 19.0115 22.1599Z" fill="#208FD3"/>
</g>
<defs>
<clipPath id="clip0_375_5774">
<rect width="40" height="40" fill="white"/>
</clipPath>
</defs>
</svg>
